<?xml version="1.0" standalone="no"?>
<!DOCTYPE svg PUBLIC "-//W3C//DTD SVG 20010904//EN"
 "http://www.w3.org/TR/2001/REC-SVG-20010904/DTD/svg10.dtd">
<svg version="1.0" xmlns="http://www.w3.org/2000/svg"
 width="467.000000pt" height="467.000000pt" viewBox="0 0 467.000000 467.000000"
 preserveAspectRatio="xMidYMid meet">
<metadata>
Created by potrace 1.14, written by Peter Selinger 2001-2017
</metadata>
<g transform="translate(0.000000,467.000000) scale(0.100000,-0.100000)"
fill="#000000" stroke="none">
<path d="M0 2335 l0 -2335 315 0 c295 0 315 1 315 18 0 10 13 32 30 50 16 18
30 29 30 23 0 -6 17 -9 40 -7 22 2 43 0 46 -5 6 -10 13 -4 82 59 53 50 126
102 140 102 6 0 8 9 5 19 -9 34 17 89 90 196 40 57 94 142 121 189 46 82 63
106 49 70 -4 -12 -2 -15 8 -12 8 3 12 12 10 19 -12 46 22 150 60 185 23 21 24
15 4 -32 -8 -19 -16 -54 -17 -78 -2 -24 -6 -42 -10 -39 -13 7 -9 -12 5 -26 9
-11 9 -13 0 -7 -15 9 -18 -20 -3 -29 6 -3 10 -12 10 -18 0 -7 -4 -6 -10 3 -7
10 -10 11 -10 2 0 -7 11 -17 25 -22 14 -5 25 -15 25 -22 0 -9 -3 -10 -8 -2
-13 20 -39 12 -39 -13 0 -13 3 -26 8 -29 4 -2 6 -11 3 -18 -3 -8 -1 -17 4 -20
6 -3 8 -15 5 -25 -3 -10 0 -22 6 -25 5 -4 8 -13 5 -21 -3 -7 3 -18 14 -24 11
-6 22 -24 25 -40 5 -24 11 -29 24 -25 14 5 15 4 4 -4 -8 -6 -12 -19 -8 -31 3
-12 1 -19 -4 -15 -5 3 -9 0 -9 -6 0 -6 -4 -8 -10 -5 -5 3 -10 15 -10 26 0 12
4 17 11 13 7 -4 10 -1 7 7 -2 7 -17 13 -33 14 -28 0 -41 18 -51 72 -8 39 -23
73 -34 73 -16 0 -12 -67 5 -74 8 -3 12 -12 9 -20 -6 -16 -33 -11 -46 8 -5 7
-8 3 -9 -9 0 -16 -3 -14 -11 8 -10 29 -29 32 -36 6 -3 -11 -2 -11 7 1 9 13 11
13 11 -2 0 -10 -4 -18 -10 -18 -5 0 -13 0 -17 0 -5 0 -8 8 -8 17 0 9 -6 18
-13 21 -7 2 -12 -6 -12 -22 0 -24 -10 -31 -34 -27 -5 1 -6 -10 -4 -24 3 -14 1
-25 -3 -25 -5 0 -9 7 -9 15 0 8 -5 15 -11 15 -5 0 -7 -5 -4 -10 4 -6 1 -18 -6
-26 -6 -8 -9 -17 -5 -21 3 -3 6 -2 6 4 0 5 10 9 23 8 25 -2 43 -33 87 -155 6
-19 20 -53 30 -75 21 -47 32 -76 35 -90 6 -41 12 -43 155 -43 126 -1 138 1
134 16 -5 16 -5 16 8 1 11 -14 36 -17 136 -18 67 -1 122 1 122 4 0 7 -23 40
-129 179 -88 118 -193 288 -229 372 -24 57 -42 155 -42 231 0 58 -15 107 -30
98 -5 -3 -7 7 -3 27 3 18 7 54 7 80 1 25 4 44 8 42 4 -3 5 2 2 10 -3 9 -11 13
-16 10 -6 -4 -5 3 2 15 8 16 8 26 1 35 -6 7 -8 16 -5 19 4 3 1 20 -5 37 -7 22
-7 38 0 51 7 15 7 19 -3 17 -7 -2 -17 -7 -21 -13 -5 -5 -5 0 -2 13 5 16 1 24
-12 29 -19 7 -33 22 -33 37 0 5 8 2 17 -5 13 -11 12 -5 -5 24 -24 42 -27 51
-12 42 6 -3 5 6 -2 21 l-12 27 -8 -32 c-8 -30 -10 -31 -67 -31 -71 0 -97 17
-141 95 -17 30 -51 79 -76 109 -24 30 -44 58 -44 62 0 4 -26 45 -58 93 -124
184 -143 236 -144 376 0 78 4 103 21 135 26 50 26 55 3 32 -11 -9 -17 -20 -15
-24 2 -5 -3 -8 -13 -8 -14 0 -15 -2 -3 -17 9 -10 9 -14 2 -10 -7 4 -22 2 -35
-4 -56 -29 -60 -30 -76 -18 -51 39 -96 103 -97 139 -1 26 16 50 35 50 6 0 9 4
5 9 -3 5 -1 12 5 16 5 3 10 1 10 -5 0 -6 10 -8 25 -4 66 16 212 3 198 -19 -3
-5 4 -6 17 -2 15 5 20 4 16 -4 -4 -6 -15 -11 -24 -12 -11 0 -12 -2 -4 -6 6 -2
10 -9 7 -13 -3 -5 -1 -11 5 -15 5 -3 10 -3 10 2 0 4 14 9 31 10 18 1 34 4 36
7 11 11 2 188 -12 241 -19 69 -20 126 -2 137 9 6 9 8 0 8 -19 0 -16 31 5 46
15 13 16 14 0 8 -20 -7 -23 4 -38 126 -25 213 2 434 76 612 15 36 24 77 24
111 0 113 37 244 91 327 42 63 136 158 178 180 20 10 62 43 94 72 31 29 82 71
113 93 30 22 71 55 92 73 20 19 60 45 89 60 30 14 72 41 95 61 23 19 48 36 56
37 8 2 24 11 36 21 63 56 97 63 321 66 159 2 217 -3 267 -22 14 -5 69 -15 123
-20 54 -6 113 -19 133 -30 20 -10 75 -31 122 -46 107 -35 337 -148 396 -194
14 -11 32 -17 40 -14 8 3 14 -1 14 -10 0 -9 9 -18 20 -22 25 -8 126 -119 150
-165 10 -19 57 -93 104 -163 76 -114 86 -133 86 -173 0 -28 -4 -43 -10 -39 -6
3 -10 20 -10 37 0 16 -7 45 -16 64 -18 38 -39 57 -31 28 3 -11 8 -37 11 -59 4
-32 1 -26 -17 26 -29 86 -53 122 -75 114 -13 -5 -14 -3 -6 5 9 9 8 19 -3 41
-17 35 -29 43 -39 28 -4 -8 -3 -9 4 -5 8 5 10 2 6 -9 -5 -12 -9 -13 -21 -4 -9
8 -10 15 -4 18 6 4 8 17 4 29 -3 12 -9 19 -14 16 -5 -3 -7 -9 -4 -14 3 -5 1
-11 -5 -15 -5 -3 -10 -2 -10 3 0 6 -7 13 -16 16 -12 4 -15 2 -10 -9 3 -8 1
-15 -3 -15 -5 0 -11 6 -14 13 -3 9 -8 9 -21 -2 -14 -12 -16 -12 -10 3 5 13 2
17 -11 14 -13 -2 -21 7 -29 30 -6 18 -15 30 -19 26 -4 -4 -7 1 -7 11 0 10 -3
15 -7 12 -3 -4 -12 -2 -19 3 -9 8 -12 6 -10 -6 0 -9 -5 -19 -13 -22 -11 -3
-12 2 -7 24 5 22 4 25 -4 14 -9 -13 -11 -13 -20 0 -8 12 -11 13 -19 1 -7 -11
-9 -11 -13 0 -4 12 -8 12 -22 -1 -16 -13 -18 -12 -14 10 2 18 8 24 22 22 15
-3 16 -1 5 11 -12 12 -15 12 -26 -2 -11 -14 -12 -14 -13 4 0 15 -2 17 -9 6 -7
-11 -11 -9 -21 9 -8 15 -18 20 -31 17 -12 -3 -24 2 -33 14 -9 14 -22 18 -44
15 -19 -2 -36 2 -43 10 -6 8 -19 14 -28 13 -10 0 -11 -2 -3 -6 6 -2 12 -12 11
-21 0 -11 -2 -12 -6 -4 -2 6 -13 12 -24 12 -11 0 -19 7 -19 16 0 14 -2 13 -17
-1 -16 -16 -17 -16 -25 6 l-9 24 -21 -33 c-22 -35 -31 -42 -21 -15 5 12 3 14
-7 8 -13 -8 -13 -7 7 43 3 8 -7 1 -23 -15 -16 -15 -28 -30 -27 -33 1 -3 -7 -6
-17 -6 -13 0 -17 6 -14 20 2 11 -4 28 -14 39 -9 10 -16 22 -15 26 5 11 -8 41
-18 41 -12 0 -11 -10 2 -48 6 -17 15 -30 21 -29 6 1 13 -4 16 -12 3 -8 0 -11
-7 -7 -14 9 -14 10 4 -39 18 -50 18 -62 3 -68 -7 -2 -5 -3 4 -2 55 9 4 -60
-53 -72 -18 -3 -26 -10 -22 -17 5 -8 3 -8 -8 -1 -8 6 -55 9 -106 7 -84 -3 -93
-5 -93 -23 0 -10 6 -19 13 -19 8 0 24 -12 38 -26 l24 -27 -22 6 c-13 3 -25 2
-28 -3 -5 -8 23 -70 31 -70 3 0 2 6 -1 13 -4 6 1 3 9 -7 13 -16 19 -17 28 -8
8 8 8 12 1 12 -6 0 -14 7 -17 16 -4 11 1 10 21 -6 20 -16 34 -19 57 -14 17 4
34 12 38 18 6 8 8 7 8 -1 0 -7 9 -13 20 -13 14 0 20 7 20 23 0 18 2 19 10 7 5
-8 10 -10 10 -5 0 6 7 2 14 -8 11 -15 16 -15 28 -5 18 17 38 21 38 8 0 -6 17
-10 40 -8 22 1 40 5 40 9 0 4 14 3 32 -2 34 -9 44 -7 33 10 -3 6 -11 8 -17 5
-6 -4 -6 1 1 14 6 12 17 24 24 28 9 6 9 4 -1 -8 -11 -14 -11 -20 0 -37 7 -12
16 -21 21 -21 4 0 5 5 2 10 -3 6 -1 10 4 10 6 0 11 -4 11 -10 0 -5 15 -9 33
-8 19 1 39 -2 45 -6 8 -5 10 -1 6 11 -5 17 -5 17 9 1 9 -12 24 -17 45 -14 17
2 33 -1 35 -7 1 -5 27 -13 57 -18 83 -13 247 -59 267 -76 17 -14 17 -14 -2 -7
-296 107 -665 131 -995 64 -415 -84 -722 -252 -995 -542 -82 -88 -84 -90 -39
-28 27 35 48 72 46 81 -2 9 4 19 12 22 11 4 13 1 9 -11 -4 -9 15 4 43 29 27
26 63 58 79 73 17 14 24 26 18 26 -7 0 -13 5 -13 11 0 9 4 8 14 0 10 -9 21 -5
49 18 20 15 34 31 32 35 -3 3 -2 4 1 2 3 -3 30 11 59 30 30 19 59 34 66 34 8
0 9 10 5 31 -3 17 -6 36 -6 41 0 5 -4 6 -10 3 -5 -3 -10 3 -10 14 0 10 -3 26
-6 35 -3 9 -1 16 6 16 6 0 8 -4 5 -10 -3 -5 -1 -10 4 -10 6 0 11 6 11 13 0 7
3 8 8 2 16 -22 51 -7 52 23 0 8 -5 10 -12 6 -8 -5 -9 -2 -5 10 6 16 -17 76
-29 76 -3 0 -3 -15 0 -32 6 -31 5 -32 -5 -8 -7 14 -13 40 -15 59 -4 32 -3 33
11 15 14 -18 14 -18 9 2 -3 12 -1 25 5 28 6 4 11 11 11 17 0 11 -22 7 -32 -6
-4 -5 -7 4 -7 20 0 17 3 24 6 18 2 -7 11 -13 18 -13 8 0 17 6 21 13 4 6 4 9
-1 5 -16 -15 -38 24 -37 64 l2 40 -35 -38 c-36 -39 -43 -54 -25 -54 6 0 10
-12 10 -26 0 -22 -2 -24 -15 -14 -12 10 -14 8 -10 -9 2 -14 0 -19 -7 -15 -6 4
-8 24 -4 52 6 42 5 44 -9 27 -9 -13 -14 -15 -15 -6 0 7 -6 11 -15 7 -10 -3
-15 1 -15 12 0 10 -7 27 -16 38 -15 18 -15 18 -5 -2 6 -12 8 -24 5 -27 -4 -3
3 -19 14 -35 26 -35 24 -87 -3 -87 -10 0 -21 -9 -25 -19 -6 -19 -7 -19 -14 -1
-6 16 -8 16 -19 3 -17 -21 -47 -30 -48 -15 0 7 -5 1 -10 -12 -11 -29 -2 -42
14 -21 7 8 20 16 30 18 13 2 17 -4 17 -28 0 -16 4 -30 9 -30 5 0 6 -10 3 -22
-5 -22 -6 -21 -18 7 -7 17 -10 33 -7 38 2 4 0 7 -5 7 -5 0 -8 -31 -8 -69 1
-38 4 -67 9 -64 15 9 6 -20 -10 -32 -10 -8 -16 -25 -15 -47 1 -23 -3 -35 -12
-35 -15 0 -14 8 3 67 14 43 14 60 1 40 -14 -22 -13 5 1 32 8 14 8 23 0 31 -8
8 -11 6 -11 -6 0 -10 -8 -17 -19 -17 -15 0 -18 5 -13 22 5 21 6 21 13 2 6 -16
8 -16 8 -2 1 24 -14 31 -29 13 -10 -12 -10 -21 0 -45 7 -16 17 -27 24 -24 6 3
2 -2 -9 -10 -18 -15 -20 -15 -33 10 -7 14 -11 32 -8 40 3 7 1 16 -4 19 -15 9
-17 -19 -4 -51 7 -17 10 -34 7 -38 -4 -3 -1 -6 5 -6 7 0 12 -8 12 -18 0 -10 7
-29 16 -42 l16 -25 -22 24 c-18 21 -23 22 -31 10 -8 -13 -13 -6 -10 14 0 4 -3
7 -9 7 -5 0 -10 7 -10 16 0 14 2 15 18 3 15 -13 16 -12 4 3 -8 9 -11 23 -7 30
4 7 0 5 -8 -5 -16 -19 -58 -18 -65 3 -3 7 0 10 6 6 7 -4 9 1 7 15 -6 31 -15
36 -15 9 0 -18 -3 -21 -12 -12 -8 8 -8 15 2 27 12 14 16 14 25 3 16 -20 35
-21 28 0 -3 9 -2 14 2 10 11 -10 45 46 45 73 0 12 4 17 11 13 8 -5 8 -1 0 14
-13 25 -33 39 -25 19 3 -8 1 -18 -5 -22 -6 -3 -11 -12 -11 -18 0 -7 4 -6 10 3
12 18 12 2 0 -25 -6 -14 -9 -15 -10 -5 0 8 -7 0 -15 -19 -13 -28 -17 -31 -30
-21 -8 7 -15 9 -15 4 -1 -5 -7 2 -14 15 -11 19 -14 21 -19 7 -4 -9 -2 -16 3
-16 18 0 11 -40 -7 -40 -17 -1 -17 -1 -1 -14 10 -7 15 -16 11 -19 -3 -4 -1 -7
5 -7 7 0 12 -4 12 -9 0 -16 -31 -41 -42 -35 -7 5 -8 2 -3 -6 4 -7 4 -15 -1
-19 -12 -8 -34 -48 -34 -61 0 -6 6 -8 12 -4 9 5 8 2 -1 -10 -10 -12 -11 -20
-3 -28 7 -7 16 -1 28 23 18 33 19 33 22 10 3 -19 6 -21 13 -10 6 10 9 7 9 -13
0 -23 -4 -26 -30 -24 -19 1 -31 -3 -33 -13 -4 -13 -5 -13 -6 2 0 9 -6 17 -12
17 -6 0 -9 -9 -6 -20 4 -16 2 -18 -13 -10 -11 6 -21 6 -24 1 -4 -5 0 -11 6
-14 10 -3 10 -8 -1 -18 -9 -9 -11 -9 -7 -1 4 7 1 12 -8 12 -9 0 -16 -7 -16
-17 0 -9 -3 -13 -7 -10 -3 4 -11 -1 -18 -10 -11 -14 -12 -14 -18 1 -4 10 -3
15 3 11 6 -3 10 -2 10 3 0 6 -7 12 -15 15 -11 5 -14 -4 -14 -41 0 -54 18 -152
31 -168 5 -6 6 -19 2 -28 -3 -9 4 -33 16 -53 l21 -38 -31 33 c-17 17 -35 32
-41 32 -6 0 -6 8 1 20 6 11 8 25 4 32 -4 6 -7 24 -6 39 0 16 -4 29 -9 29 -5 0
-9 6 -8 13 5 43 -2 66 -21 64 -23 -2 -23 3 -9 -73 6 -32 12 -75 14 -95 5 -56
14 -77 51 -113 19 -18 34 -38 34 -45 0 -17 18 -13 29 7 6 11 6 24 -1 36 -9 15
-7 17 9 12 15 -5 27 4 52 39 58 81 42 47 -28 -59 -62 -94 -191 -340 -191 -364
0 -10 -29 -26 -41 -24 -3 1 -12 -11 -18 -25 -11 -23 -10 -25 3 -13 9 7 16 8
16 2 0 -14 -26 -33 -34 -25 -4 4 -4 0 -1 -9 4 -9 2 -19 -4 -22 -7 -5 -7 -15
-1 -32 13 -33 13 -37 -2 -28 -7 4 -10 4 -6 -1 4 -4 3 -15 -2 -25 -5 -10 -6
-20 -2 -24 10 -10 9 -75 -2 -69 -4 3 -5 -5 -1 -18 11 -34 12 -70 3 -98 -7 -19
-5 -22 7 -17 8 3 15 1 15 -4 0 -6 5 -10 12 -10 18 0 78 -50 78 -66 0 -7 5 -14
10 -14 6 0 16 -12 22 -27 l11 -28 8 30 c6 27 6 26 4 -7 -2 -21 1 -41 6 -44 5
-3 9 -14 9 -25 0 -10 3 -19 8 -19 4 0 13 -18 20 -40 16 -53 60 -102 87 -98 16
2 20 9 18 38 -2 19 -4 65 -6 102 -2 36 -9 73 -16 81 -6 8 -11 35 -11 59 2 60
-25 266 -32 248 -5 -12 -7 -11 -7 3 -1 10 4 27 9 37 8 15 7 18 -4 14 -10 -4
-13 3 -11 28 2 18 4 40 5 48 0 13 1 13 10 0 8 -12 10 -11 10 7 0 12 4 25 10
28 5 3 10 15 10 25 0 30 27 37 125 33 50 -2 97 0 105 3 8 4 44 8 79 10 35 2
69 8 75 14 5 5 16 10 24 10 12 0 12 -3 2 -15 -7 -8 -9 -15 -4 -15 4 0 -5 -13
-21 -30 -16 -16 -24 -30 -17 -30 7 0 3 -14 -9 -35 -20 -33 -20 -35 -2 -35 14
0 12 -4 -10 -19 -20 -13 -25 -20 -15 -24 9 -4 6 -8 -9 -12 -18 -6 -20 -11 -12
-38 6 -20 5 -33 -1 -37 -6 -4 -8 -15 -4 -25 5 -12 4 -16 -4 -11 -6 3 -13 2
-17 -4 -4 -6 5 -10 20 -10 15 0 24 4 20 10 -3 6 3 10 14 10 15 0 19 4 14 17
-5 14 -1 15 32 10 34 -6 36 -5 19 8 -17 13 -18 14 -1 15 9 0 16 6 15 13 -2 6
3 11 11 9 8 -2 11 3 8 13 -6 15 4 19 32 16 7 -2 10 2 6 8 -3 6 -13 11 -22 11
-9 0 -14 3 -10 6 3 4 20 1 37 -4 22 -8 29 -8 24 0 -5 8 2 9 21 4 25 -6 27 -5
16 8 -12 14 -10 16 13 16 14 0 26 5 26 11 0 7 10 9 27 4 22 -5 24 -4 15 8 -9
11 -6 13 20 9 22 -3 29 -1 24 7 -6 9 0 10 20 5 18 -5 25 -3 20 4 -7 11 28 27
42 19 4 -3 32 -6 62 -8 30 -1 69 -8 86 -15 17 -7 43 -11 58 -8 15 2 36 -2 47
-9 11 -8 33 -13 49 -11 16 2 32 -1 35 -6 3 -6 15 -10 26 -10 11 0 18 -4 14 -9
-3 -5 0 -13 6 -17 7 -4 10 -3 6 2 -3 5 2 18 10 29 13 16 15 17 10 3 -4 -10 -2
-18 3 -18 6 0 10 5 10 10 0 6 9 10 20 10 19 0 19 2 6 23 -13 20 -12 24 7 42
11 11 16 13 12 5 -6 -12 -5 -12 4 -4 10 9 9 18 -3 42 -9 17 -20 34 -26 37 -5
3 -10 16 -10 28 0 20 0 20 -14 2 -12 -16 -17 -17 -37 -7 l-24 12 25 -5 c22 -4
22 -4 5 4 -11 5 -33 12 -49 16 -20 4 -26 9 -17 14 19 12 -14 23 -45 15 -15 -4
-24 -2 -24 6 0 6 -5 8 -10 5 -6 -4 -17 -1 -25 5 -13 11 -67 8 -119 -7 -13 -4
-16 -1 -11 8 6 9 -3 11 -41 6 -31 -4 -42 -3 -29 3 17 7 17 9 2 9 -9 1 -16 7
-15 14 2 7 -5 11 -16 9 -10 -2 -16 1 -13 5 3 5 2 15 -4 23 -6 10 -9 11 -9 3 0
-7 -5 -13 -11 -13 -6 0 0 13 13 29 13 17 28 28 35 26 7 -2 10 2 6 12 -4 10 -2
14 4 10 6 -4 16 0 23 8 7 8 16 12 21 9 5 -3 6 3 2 12 -5 15 -1 16 31 11 26 -4
39 -2 42 8 3 7 13 16 21 19 14 6 14 4 2 -11 -11 -14 -9 -14 11 2 14 11 27 23
30 26 3 3 25 13 49 23 43 17 43 17 38 -4 -3 -11 -1 -20 4 -20 5 0 9 6 9 14 0
12 47 38 75 42 6 0 16 2 23 2 7 1 10 7 6 13 -5 8 -1 8 14 0 14 -7 23 -8 27 -1
3 5 11 10 16 10 6 0 7 -6 3 -12 -5 -9 -2 -8 9 1 12 10 30 12 60 7 23 -4 48 -8
55 -8 6 -1 12 -6 12 -12 0 -6 5 -3 11 7 7 13 14 15 23 8 6 -5 21 -8 31 -7 11
2 26 -2 34 -8 12 -9 13 -8 7 3 -6 10 -4 12 10 7 11 -3 34 -7 52 -8 17 -1 32
-5 32 -8 0 -3 12 -6 28 -7 61 -4 90 -8 87 -13 -2 -3 0 -12 6 -20 6 -10 9 -11
9 -2 0 18 27 15 38 -4 6 -11 11 -13 16 -5 4 6 2 11 -3 11 -6 0 -11 5 -11 11 0
8 5 7 16 -1 10 -9 14 -24 11 -47 -4 -25 -2 -33 8 -29 8 3 12 -2 11 -12 -3 -17
-3 -17 -61 -27 -32 -6 -36 -9 -20 -15 17 -6 16 -8 -13 -14 -18 -4 -30 -11 -27
-16 3 -4 -2 -10 -10 -14 -8 -3 -23 -19 -34 -37 -17 -28 -20 -29 -30 -12 -9 16
-10 15 -11 -9 0 -16 -4 -28 -10 -28 -5 0 -10 5 -10 12 0 9 -3 9 -11 1 -6 -6
-18 -9 -25 -6 -9 3 -14 -1 -14 -12 0 -9 -4 -14 -9 -11 -5 4 -7 -12 -4 -36 6
-49 37 -90 61 -81 10 4 13 2 8 -5 -3 -6 -2 -13 4 -17 6 -4 8 -11 5 -16 -4 -5
-1 -9 5 -9 6 0 13 7 16 15 6 14 57 45 75 45 5 0 25 11 45 25 20 14 40 23 44
20 4 -2 26 14 49 35 24 22 48 40 56 40 7 0 18 7 25 15 7 8 19 15 27 15 13 0
13 -2 2 -17 -9 -11 3 -7 35 11 27 16 46 23 42 17 -4 -6 -1 -11 8 -11 8 0 18 4
21 10 3 5 16 15 28 21 18 9 20 9 10 -2 -17 -17 -17 -37 -1 -21 17 17 31 15 24
-3 -4 -12 0 -12 21 2 19 13 25 14 18 4 -6 -11 -4 -13 8 -8 9 3 19 2 22 -3 3
-5 12 -7 20 -3 11 4 13 1 9 -11 -8 -20 9 -21 26 -1 7 8 17 15 22 15 6 0 5 -7
-2 -15 -20 -24 -3 -31 21 -9 22 19 22 19 10 -4 -11 -20 -10 -26 6 -38 10 -7
22 -14 27 -14 4 0 5 -7 2 -16 -5 -12 -2 -15 10 -10 8 3 23 6 31 6 9 0 13 3 10
7 -4 3 -1 13 6 21 10 13 9 15 -5 9 -12 -4 -18 -2 -18 8 0 8 5 15 11 15 15 0
-32 80 -54 92 -10 5 -16 16 -13 24 4 9 -2 14 -16 14 -16 0 -18 3 -9 14 9 11 8
14 -5 12 -9 0 -19 5 -22 13 -3 10 0 12 12 8 11 -5 16 -1 16 13 0 14 7 20 23
20 12 0 34 6 48 14 50 26 74 27 89 3 15 -23 85 -252 119 -392 42 -170 71 -301
72 -325 1 -14 7 13 13 60 10 73 9 94 -6 150 -10 36 -18 93 -18 127 0 60 1 63
31 79 40 20 72 12 115 -30 28 -27 37 -46 50 -111 17 -81 16 -137 -5 -295 -6
-47 -18 -143 -28 -215 -9 -71 -16 -148 -15 -170 1 -22 3 -58 4 -80 2 -25 -5
-50 -17 -69 -17 -26 -20 -27 -32 -10 -12 17 -13 16 -13 -4 0 -12 6 -21 12 -19
7 1 14 -9 15 -23 1 -14 0 -19 -3 -12 -12 26 -19 9 -21 -50 -1 -34 -8 -66 -14
-72 -9 -8 -10 -7 -6 6 3 9 0 19 -9 22 -16 6 -19 42 -4 51 5 3 10 24 10 46 0
22 -4 38 -8 35 -5 -3 -7 -18 -4 -34 2 -16 -1 -33 -7 -36 -6 -4 -11 -21 -11
-37 0 -16 -6 -40 -13 -52 -11 -18 -11 -28 -1 -57 11 -30 21 -26 14 5 -1 5 2
25 5 45 7 33 8 34 16 12 5 -13 6 -29 2 -35 -4 -6 0 -8 10 -4 25 9 24 8 -32
-59 -5 -6 -11 -20 -14 -30 -3 -14 -5 -12 -6 8 -3 70 -38 18 -37 -54 l1 -38
-18 23 c-14 16 -17 17 -13 5 3 -11 0 -17 -7 -15 -7 1 -11 -6 -11 -16 2 -14 -1
-15 -12 -6 -14 11 -18 2 -17 -38 1 -9 -5 -10 -16 -4 -14 8 -16 4 -14 -32 3
-37 2 -40 -9 -20 -12 25 -31 32 -22 8 4 -8 1 -15 -5 -15 -6 0 -11 -10 -11 -21
0 -18 -2 -19 -15 -9 -16 13 -21 35 -6 25 6 -3 8 6 5 22 -3 17 2 36 16 55 12
16 20 38 18 49 -3 19 -3 19 -16 -2 -10 -15 -10 -19 -1 -14 8 5 10 4 5 -3 -4
-6 -13 -9 -20 -6 -17 6 -25 -14 -22 -55 2 -23 -2 -30 -11 -27 -8 3 -13 -2 -13
-15 0 -27 -23 -19 -30 10 -3 12 -8 22 -12 22 -21 -2 -26 1 -36 21 -6 13 -11
17 -11 10 -1 -7 6 -24 15 -37 10 -15 14 -34 10 -49 -3 -14 -2 -28 4 -31 5 -3
11 -23 11 -43 l2 -37 6 43 c8 48 31 81 31 44 0 -12 4 -22 10 -22 5 0 7 -7 4
-15 -5 -13 -9 -13 -23 -3 -15 12 -15 11 0 -7 21 -25 36 -70 20 -61 -15 10 -48
-2 -48 -17 0 -6 -4 -21 -8 -32 -6 -14 -1 -12 14 8 25 30 45 27 35 -6 l-7 -22
23 20 c12 11 24 19 26 18 2 -2 10 -3 17 -3 9 0 8 3 -2 9 -19 12 -9 33 16 37
29 5 50 -21 33 -41 -7 -8 -10 -22 -6 -30 3 -9 2 -14 -3 -11 -14 9 -62 -45 -68
-76 -3 -16 -9 -31 -14 -34 -11 -6 -23 41 -14 55 4 7 0 8 -10 5 -10 -4 -13 -13
-10 -24 3 -10 1 -21 -5 -25 -5 -3 -10 -17 -10 -30 0 -13 -4 -27 -10 -30 -5 -3
-10 0 -10 7 0 8 -8 14 -18 14 -12 0 -18 -7 -18 -21 1 -11 -5 -19 -12 -17 -8 1
-11 -2 -8 -7 9 -14 -4 -41 -20 -41 -9 0 -14 -12 -14 -37 l-1 -38 -14 25 c-8
14 -14 33 -15 43 0 30 -20 18 -20 -13 0 -16 -4 -30 -8 -30 -4 0 -9 -11 -10
-25 -1 -13 -10 -38 -21 -55 l-19 -31 -6 26 c-4 15 -11 23 -17 19 -6 -4 -15 0
-20 7 -7 11 -9 10 -9 -3 0 -12 -8 -18 -25 -18 -17 0 -23 -4 -19 -15 3 -8 2
-20 -2 -27 -6 -9 -10 -6 -14 11 l-5 23 -20 -23 c-11 -12 -14 -19 -7 -15 6 4
12 2 12 -3 0 -6 -6 -11 -14 -11 -8 0 -17 -6 -19 -12 -3 -7 -6 -3 -6 9 -1 16
-6 20 -21 16 -11 -3 -20 -12 -20 -19 0 -8 -7 -14 -16 -14 -12 0 -15 -6 -11
-22 6 -22 5 -22 -8 -4 -7 10 -18 15 -24 12 -5 -3 -12 2 -14 11 -3 13 -5 10 -6
-7 -1 -19 -3 -22 -10 -10 -6 8 -7 18 -5 22 3 4 -2 8 -10 8 -8 0 -18 -5 -21
-10 -4 -6 -11 -8 -16 -5 -5 4 -9 1 -9 -6 0 -7 -9 -9 -22 -6 -12 3 -30 1 -41
-5 -15 -8 -18 -7 -11 4 5 8 -1 7 -19 -5 -20 -13 -25 -13 -21 -3 9 22 -16 30
-31 10 -8 -11 -15 -14 -15 -9 0 6 -7 -1 -15 -15 -8 -14 -14 -19 -15 -12 0 8
-5 10 -12 6 -10 -6 -10 -5 -1 7 8 10 9 19 1 29 -8 12 -8 11 -3 -5 5 -16 4 -17
-6 -8 -13 13 -54 -1 -45 -16 3 -4 -8 -5 -25 -3 -24 3 -27 7 -18 18 18 22 -3
16 -29 -8 -13 -13 -23 -18 -22 -13 5 21 -1 29 -10 15 -5 -8 -18 -16 -30 -16
-38 -3 -41 -4 -34 -16 4 -7 3 -8 -4 -4 -7 4 -12 14 -12 22 0 13 -3 13 -22 0
-30 -21 -37 -20 -30 6 3 14 2 19 -6 14 -7 -4 -12 0 -13 11 0 12 -2 14 -6 5 -4
-10 -11 -5 -24 15 -10 15 -19 22 -19 16 0 -7 -4 -13 -10 -13 -5 0 -10 7 -10
15 0 8 -7 15 -16 15 -8 0 -12 4 -9 10 3 6 -1 7 -10 4 -12 -5 -13 -10 -6 -17 6
-6 11 -18 11 -27 0 -13 -1 -13 -10 0 -5 8 -10 11 -10 6 0 -5 -7 -3 -15 4 -9 7
-13 21 -10 31 4 11 2 19 -5 19 -6 0 -9 4 -6 9 3 4 -9 7 -27 6 -28 -3 -35 1
-47 28 -10 23 -10 32 -2 35 7 2 12 10 12 18 0 8 -6 11 -15 8 -8 -4 -15 -2 -15
4 0 5 7 12 15 16 8 3 15 11 14 18 0 10 -2 10 -5 1 -4 -9 -12 -9 -32 -1 -41 18
-47 25 -32 43 8 10 9 15 1 15 -6 0 -11 -4 -11 -10 0 -14 -33 -13 -48 2 -7 7
-12 9 -12 4 0 -13 25 -33 37 -29 8 3 11 -8 10 -32 -2 -31 -5 -35 -22 -31 -11
3 -24 6 -30 6 -24 1 -48 32 -51 65 -1 19 2 35 7 35 5 0 9 7 9 16 0 11 6 15 20
11 23 -6 26 3 8 22 -11 11 -10 13 0 7 8 -5 11 0 8 16 -3 13 -5 25 -5 27 -1 2
-9 -5 -19 -17 l-18 -20 -17 21 c-9 12 -17 25 -17 31 0 5 -2 7 -5 4 -3 -3 2
-21 10 -41 18 -44 21 -81 4 -57 -8 12 -10 8 -7 -17 3 -18 1 -30 -4 -27 -4 3
-8 13 -8 22 0 15 -2 15 -11 2 -9 -12 -10 -10 -6 9 3 13 2 34 -3 47 -7 18 -6
22 5 18 11 -5 12 0 5 25 -8 29 -7 32 26 46 35 14 38 22 24 65 l-7 25 -12 -28
c-9 -23 -13 -26 -24 -15 -7 7 -16 21 -20 31 -9 25 -37 21 -37 -5 1 -21 2 -22
14 -5 13 16 14 16 18 -5 2 -13 1 -37 -2 -53 -4 -24 -10 -30 -29 -30 -13 0 -26
6 -29 13 -2 6 2 12 9 12 10 0 10 3 2 11 -6 6 -9 19 -6 28 4 14 3 14 -6 1 -6
-8 -10 -32 -9 -52 2 -41 -7 -60 -15 -31 -12 42 -4 117 14 133 17 14 17 16 0
33 -18 17 -18 17 -14 -6 6 -29 -15 -46 -23 -20 -3 10 -10 27 -15 38 -8 17 -8
16 -3 -4 5 -19 3 -23 -9 -18 -9 3 -18 1 -21 -6 -2 -7 -5 -5 -5 4 -1 22 -31 48
-31 26 0 -8 -6 -20 -14 -26 -11 -9 -18 -8 -30 4 -15 15 -16 15 -16 0 0 -22 30
-66 41 -59 5 3 7 10 4 15 -3 5 1 6 8 3 19 -7 27 -37 16 -55 -7 -12 -9 -11 -9
1 0 9 -3 11 -10 4 -15 -15 -20 -122 -8 -150 10 -20 8 -28 -7 -42 -13 -12 -15
-13 -9 -2 15 27 14 43 -2 29 -17 -14 -43 4 -45 30 -1 9 -4 7 -7 -7 -7 -22 -8
-22 -27 -7 -11 9 -15 14 -8 10 7 -3 22 4 33 15 24 24 41 19 33 -9 -3 -10 -1
-21 4 -24 4 -3 9 10 9 28 0 19 -3 32 -7 29 -10 -6 -48 34 -59 61 -8 17 -9 16
-9 -8 -1 -16 -5 -26 -11 -22 -6 3 -7 -1 -4 -9 3 -9 2 -16 -4 -16 -6 0 -8 -10
-5 -22 6 -25 42 -69 52 -64 3 2 13 -12 22 -30 16 -32 16 -34 0 -22 -9 7 -24
21 -34 33 -17 18 -18 18 -13 1 6 -16 2 -18 -26 -12 -28 5 -30 4 -13 -5 11 -7
25 -18 31 -25 6 -8 30 -15 53 -16 32 -1 41 -5 36 -15 -3 -8 -5 -17 -5 -20 0
-4 -9 2 -19 11 -13 12 -21 14 -26 6 -5 -8 -11 -7 -23 2 -10 7 -4 -3 13 -22 16
-19 33 -39 37 -44 4 -5 4 2 1 15 -3 13 -2 21 2 17 5 -5 8 -23 7 -41 -1 -17 3
-39 8 -47 7 -12 11 -10 19 10 5 14 10 19 10 12 3 -51 84 -77 109 -35 7 13 18
20 27 17 10 -4 15 0 15 15 0 12 5 21 10 21 13 0 13 -6 0 -31 -7 -13 -7 -19 -1
-19 6 0 8 -13 4 -31 -5 -24 0 -36 23 -60 32 -34 25 -38 -17 -8 -16 11 -29 18
-29 14 0 -3 -11 2 -25 11 -17 11 -25 12 -25 5 0 -7 -5 -9 -12 -5 -7 5 -8 3 -4
-5 5 -7 15 -10 23 -7 8 3 11 1 8 -4 -3 -6 -13 -10 -20 -10 -9 0 -12 -6 -8 -16
3 -8 12 -13 19 -10 7 3 16 0 20 -6 5 -7 2 -8 -7 -3 -8 5 -3 -4 10 -18 14 -15
27 -27 29 -27 3 0 -3 9 -13 20 -10 11 -13 20 -7 20 6 0 30 -22 53 -50 23 -27
45 -48 48 -45 4 2 13 -1 21 -7 12 -8 11 -9 -4 -4 -19 7 -19 6 -1 -14 19 -21
30 -27 20 -10 -3 6 -1 10 4 10 6 0 11 -4 11 -9 0 -5 3 -18 7 -28 6 -16 5 -17
-12 -3 -11 9 -16 10 -11 3 4 -8 2 -13 -6 -13 -7 0 -4 -6 7 -12 29 -18 47 -19
41 -3 -3 8 0 17 6 21 6 4 8 3 5 -3 -4 -6 5 -14 20 -18 15 -3 39 -15 54 -25 14
-11 28 -18 30 -17 3 1 1 -2 -4 -8 -5 -6 -10 -6 -15 0 -4 6 -14 12 -22 13 -49
12 -51 11 -48 -11 2 -18 -2 -22 -19 -20 -13 2 -23 -2 -23 -7 0 -6 15 -10 33
-10 45 0 65 -14 41 -29 -15 -8 -16 -11 -4 -12 8 -1 18 -1 22 0 4 0 5 -7 3 -17
-2 -13 5 -18 26 -19 17 -1 27 2 24 6 -2 5 2 12 11 15 13 5 15 1 10 -19 -4 -15
-2 -25 4 -25 6 0 8 5 5 10 -12 20 16 10 40 -14 13 -13 27 -21 31 -17 4 3 4 0
0 -6 -5 -9 0 -13 12 -13 11 0 25 -7 32 -15 9 -10 9 -15 1 -15 -6 0 -11 4 -11
8 0 5 -7 9 -15 10 -8 1 -22 3 -30 4 -8 1 -15 10 -15 20 0 13 -8 18 -29 18 -40
0 -46 -14 -14 -29 22 -10 24 -14 12 -22 -10 -8 -8 -9 9 -4 16 5 28 1 38 -12 9
-10 13 -12 9 -5 -3 6 -2 12 4 12 15 0 19 -23 9 -43 -8 -16 -7 -18 9 -9 13 8
22 7 36 -6 17 -15 17 -15 11 4 -7 16 -5 17 8 7 8 -7 19 -9 23 -5 5 4 5 1 1 -6
-6 -10 48 -12 273 -12 260 1 282 2 291 19 5 10 6 21 3 25 -3 3 3 6 15 6 12 0
22 4 22 9 0 5 -9 7 -20 4 -28 -7 -25 1 6 22 15 9 23 12 20 6 -5 -7 1 -11 14
-11 17 0 20 4 15 20 -5 15 -2 20 14 20 11 0 23 5 26 10 4 6 10 8 15 5 5 -3 16
3 26 12 16 16 15 18 -15 25 -32 9 -43 28 -15 28 8 0 12 4 9 10 -3 5 4 10 15
10 16 0 20 4 16 16 -4 11 1 18 14 21 11 3 20 13 20 23 0 9 17 33 38 53 64 64
78 80 121 150 47 73 65 85 56 35 -17 -101 -25 -191 -31 -346 l-7 -172 349 0
c321 0 347 1 326 16 -13 9 -29 13 -37 10 -9 -3 -15 1 -15 9 0 8 -5 15 -11 15
-21 0 3 21 42 37 21 8 39 19 39 25 0 5 5 6 10 3 6 -4 16 -3 23 2 7 5 28 9 47
8 19 -1 41 3 48 8 8 6 12 5 12 -2 0 -7 4 -10 9 -6 5 3 16 -2 24 -10 9 -8 23
-12 31 -9 9 3 16 1 16 -5 0 -20 -31 -61 -46 -61 -8 0 -14 -4 -14 -10 0 -5 -13
-10 -30 -10 -16 0 -30 -4 -30 -10 0 -6 103 -10 290 -10 l290 0 0 750 c0 413
-2 750 -5 750 -11 0 -45 -35 -45 -47 0 -7 -4 -13 -9 -13 -5 0 -11 -8 -13 -17
-3 -14 -13 -17 -58 -14 -30 1 -59 7 -64 12 -6 5 -18 9 -27 9 -10 0 -21 9 -24
20 -3 11 -11 20 -17 20 -6 0 -7 15 -2 43 4 23 7 50 6 59 0 9 6 19 14 22 8 3
14 12 14 20 0 8 8 17 18 20 26 8 82 4 82 -6 0 -4 8 -8 18 -8 10 0 27 -7 38
-15 12 -8 24 -12 26 -9 3 2 8 -9 11 -26 4 -18 13 -30 22 -30 13 0 15 169 15
1565 l0 1565 -2335 0 -2335 0 0 -2335z m4054 2199 c3 -8 12 -14 21 -14 8 0 15
-8 15 -17 0 -9 9 -27 21 -39 19 -21 20 -24 6 -44 -10 -15 -17 -18 -22 -10 -4
7 -16 10 -26 7 -11 -3 -19 -1 -19 5 0 5 -4 7 -9 4 -13 -8 -61 51 -61 75 0 10
5 19 10 19 6 0 10 6 10 13 0 17 47 18 54 1z m-1136 -489 c-3 -3 -9 2 -12 12
-6 14 -5 15 5 6 7 -7 10 -15 7 -18z m-1217 -8 c-13 -13 -26 -3 -16 12 3 6 11
8 17 5 6 -4 6 -10 -1 -17z m912 -3 c-3 -8 5 -16 21 -20 14 -3 26 -9 26 -13 0
-3 3 -16 6 -28 6 -20 3 -23 -25 -23 -20 0 -31 5 -31 14 0 7 -8 20 -17 27 -15
11 -16 11 -5 -1 22 -26 14 -40 -20 -36 -23 2 -37 11 -45 27 l-13 24 0 -22 c0
-13 -4 -23 -9 -23 -14 0 -23 37 -16 60 7 22 25 27 25 7 0 -9 10 -12 30 -9 17
2 30 9 30 16 0 6 11 12 24 12 17 1 23 -2 19 -12z m-243 -4 c13 -13 60 -29 60
-20 0 6 7 10 15 10 8 0 15 -6 15 -14 0 -8 3 -21 6 -29 4 -12 -3 -15 -30 -14
-26 1 -37 7 -45 24 -6 12 -22 25 -36 29 -14 3 -25 10 -25 14 0 8 32 8 40 0z
m355 0 c3 -6 -1 -7 -9 -4 -18 7 -21 14 -7 14 6 0 13 -4 16 -10z m135 -26 c0
-8 -5 -12 -10 -9 -6 4 -8 11 -5 16 9 14 15 11 15 -7z m38 -39 c-3 -3 -9 2 -12
12 -6 14 -5 15 5 6 7 -7 10 -15 7 -18z m-1207 -12 c-12 -20 -14 -14 -5 12 4 9
9 14 11 11 3 -2 0 -13 -6 -23z m1599 -29 c0 -8 -4 -12 -10 -9 -5 3 -10 10 -10
16 0 5 5 9 10 9 6 0 10 -7 10 -16z m90 -4 c0 -5 -5 -10 -11 -10 -5 0 -7 5 -4
10 3 6 8 10 11 10 2 0 4 -4 4 -10z m490 -10 c11 -11 20 -24 20 -30 0 -5 8 -14
18 -19 16 -10 16 -10 -1 -11 -10 0 -20 -7 -23 -15 -7 -18 -48 -19 -93 -4 -31
11 -33 14 -35 54 -2 43 79 60 114 25z m-2240 -10 c0 -5 -2 -10 -4 -10 -3 0 -8
5 -11 10 -3 6 -1 10 4 10 6 0 11 -4 11 -10z m-40 -10 c0 -5 -5 -10 -11 -10 -5
0 -7 5 -4 10 3 6 8 10 11 10 2 0 4 -4 4 -10z m-43 -22 c-3 -8 -6 -5 -6 6 -1
11 2 17 5 13 3 -3 4 -12 1 -19z m78 2 c-3 -5 -14 -10 -23 -10 -15 0 -15 2 -2
10 20 13 33 13 25 0z m-45 -15 c0 -8 -4 -15 -10 -15 -5 0 -7 7 -4 15 4 8 8 15
10 15 2 0 4 -7 4 -15z m53 -39 c4 -10 1 -13 -9 -9 -15 6 -19 23 -5 23 5 0 11
-7 14 -14z m-33 -17 c0 -4 -7 -9 -15 -13 -9 -3 -15 0 -15 8 0 7 7 13 15 13 8
0 15 -4 15 -8z m1864 -55 c7 -19 2 -18 -19 6 -16 17 -16 20 -3 15 9 -4 19 -13
22 -21z m-1899 -32 c-5 -31 -15 -41 -15 -16 0 11 -5 25 -11 31 -9 9 -7 12 9
10 17 -1 21 -6 17 -25z m35 2 c0 -8 -5 -12 -10 -9 -6 4 -8 11 -5 16 9 14 15
11 15 -7z m120 -31 c0 -12 -7 -14 -29 -10 -18 4 -31 2 -33 -5 -3 -8 -9 -8 -24
0 -18 11 -18 11 3 12 12 0 28 6 35 13 15 17 48 10 48 -10z m-367 -2 c5 -1 6
-5 2 -10 -3 -5 -1 -12 5 -16 15 -9 1 -27 -16 -21 -7 3 -16 1 -19 -4 -4 -6 1
-10 9 -10 26 0 21 -62 -6 -79 -21 -13 -22 -13 -10 2 9 11 10 17 2 22 -6 4 -8
16 -4 28 6 19 5 20 -8 10 -13 -11 -15 -8 -16 22 -1 19 3 35 8 35 5 0 7 -7 4
-15 -5 -11 -2 -13 10 -9 18 7 18 7 10 28 -3 9 -10 13 -15 10 -5 -3 -9 0 -9 5
0 6 10 9 23 7 12 -3 26 -5 30 -5z m104 -13 c-3 -8 -6 -5 -6 6 -1 11 2 17 5 13
3 -3 4 -12 1 -19z m65 -19 c-21 -24 -25 -19 -10 13 7 15 16 22 19 16 4 -6 0
-19 -9 -29z m88 31 c0 -5 -5 -10 -11 -10 -5 0 -7 5 -4 10 3 6 8 10 11 10 2 0
4 -4 4 -10z m67 -35 c0 -8 -4 -12 -9 -9 -5 3 -6 10 -3 15 9 13 12 11 12 -6z
m-398 -24 c11 -7 10 -11 -6 -20 -23 -12 -34 -6 -26 15 6 16 13 17 32 5z m324
-16 c-3 -9 -8 -14 -10 -11 -3 3 -2 9 2 15 9 16 15 13 8 -4z m-103 -25 c9 -16
8 -19 -6 -13 -12 4 -15 3 -10 -5 4 -7 3 -12 -3 -12 -7 0 -7 -8 -1 -26 14 -35
13 -40 -10 -40 -29 0 -38 41 -15 66 10 11 15 26 12 35 -9 23 20 19 33 -5z
m-127 -5 c-3 -9 -8 -14 -10 -11 -3 3 -2 9 2 15 9 16 15 13 8 -4z m167 -26 c0
-3 -6 -6 -14 -6 -8 0 -11 8 -8 20 4 14 7 16 13 5 5 -7 9 -16 9 -19z m-150 -40
c0 -5 5 -7 12 -3 7 4 8 3 4 -5 -4 -6 -13 -11 -19 -10 -33 4 -36 -2 -15 -37 18
-30 19 -37 7 -45 -17 -11 -32 -7 -35 9 -1 7 0 8 3 2 2 -5 9 -10 14 -10 17 0 9
21 -17 45 -23 21 -28 22 -41 10 -18 -18 -20 -18 -29 -2 -4 6 -4 9 1 5 4 -4 14
-1 21 7 8 8 21 12 29 9 8 -4 15 -1 15 5 0 6 7 11 15 11 8 0 15 5 15 10 0 6 5
10 10 10 6 0 10 -5 10 -11z m-175 -46 c-3 -24 4 -35 18 -26 22 14 39 12 33 -4
-3 -8 -6 -19 -6 -24 0 -6 -5 -7 -12 -3 -7 4 -8 3 -4 -5 4 -6 11 -9 16 -6 5 3
8 -3 7 -14 0 -11 -6 -17 -14 -14 -7 3 -13 -2 -13 -11 0 -9 -4 -16 -9 -16 -5 0
-7 10 -3 22 4 16 1 20 -9 16 -11 -4 -14 7 -16 48 -1 30 2 54 7 54 4 0 7 -8 5
-17z m185 -3 c0 -5 -4 -10 -10 -10 -5 0 -10 5 -10 10 0 6 5 10 10 10 6 0 10
-4 10 -10z m-196 -109 c3 -5 -1 -14 -8 -20 -12 -10 -13 -8 -9 8 6 23 9 25 17
12z m-24 -111 c-8 -5 -19 -10 -25 -10 -5 0 -3 5 5 10 8 5 20 10 25 10 6 0 3
-5 -5 -10z m2580 -94 c0 -3 -4 -8 -10 -11 -5 -3 -10 -1 -10 4 0 6 5 11 10 11
6 0 10 -2 10 -4z m-3637 -51 c16 1 31 -3 33 -7 3 -4 15 -8 27 -8 17 0 19 -2 7
-9 -8 -6 -17 -8 -21 -5 -4 2 -9 -3 -13 -11 -6 -17 -26 -20 -26 -4 0 5 5 7 10
4 6 -3 10 -1 10 4 0 6 -12 11 -26 11 -14 0 -23 -4 -19 -9 3 -5 1 -12 -5 -16
-5 -3 -10 -2 -10 3 0 5 -9 12 -20 15 -11 3 -20 10 -20 17 0 6 5 8 10 5 6 -3
13 1 16 10 4 9 10 13 13 8 3 -5 19 -8 34 -8z m3227 -189 c0 -2 -8 -10 -17 -17
-16 -13 -17 -12 -4 4 13 16 21 21 21 13z m-2396 -292 c9 -24 2 -26 -12 -4 -7
11 -8 20 -3 20 5 0 12 -7 15 -16z m253 -446 c-3 -8 -6 -5 -6 6 -1 11 2 17 5
13 3 -3 4 -12 1 -19z m-901 -560 c14 -2 36 -68 23 -68 -5 0 -9 -9 -9 -20 0
-13 -14 -25 -46 -40 -50 -22 -68 -25 -60 -11 4 5 -3 7 -14 4 -14 -4 -29 3 -46
22 -14 15 -23 30 -20 33 3 3 1 11 -5 19 -8 9 -8 13 -1 13 6 0 9 6 6 14 -7 19
6 25 61 31 26 2 49 6 52 9 3 2 15 2 26 -1 12 -2 27 -5 33 -5z m3461 -150 c-3
-8 -6 -5 -6 6 -1 11 2 17 5 13 3 -3 4 -12 1 -19z m23 -38 c0 -5 -7 -7 -15 -4
-8 4 -15 8 -15 10 0 2 7 4 15 4 8 0 15 -4 15 -10z m-50 -80 c0 -5 -2 -10 -4
-10 -3 0 -8 5 -11 10 -3 6 -1 10 4 10 6 0 11 -4 11 -10z m-83 -62 c-3 -8 -6
-5 -6 6 -1 11 2 17 5 13 3 -3 4 -12 1 -19z m-11 -74 c-15 -14 -16 -13 -16 9 0
14 6 27 13 30 18 6 21 -21 3 -39z m-89 -6 c-3 -8 -6 -5 -6 6 -1 11 2 17 5 13
3 -3 4 -12 1 -19z m58 -18 c-3 -5 -1 -19 5 -30 8 -16 8 -20 -2 -18 -21 5 -27
20 -17 40 5 10 12 18 15 18 3 0 2 -4 -1 -10z m-1844 -73 c-6 -8 -8 -17 -4 -20
3 -4 1 -7 -5 -7 -6 0 -10 9 -9 20 1 11 8 20 15 20 11 0 12 -3 3 -13z m36 -19
c-3 -8 -6 -5 -6 6 -1 11 2 17 5 13 3 -3 4 -12 1 -19z m-20 -10 c-3 -8 -6 -5
-6 6 -1 11 2 17 5 13 3 -3 4 -12 1 -19z m1797 -123 c-4 -8 -8 -15 -10 -15 -2
0 -4 7 -4 15 0 8 4 15 10 15 5 0 7 -7 4 -15z m-1727 -27 c-3 -7 -5 -2 -5 12 0
14 2 19 5 13 2 -7 2 -19 0 -25z m-56 -15 c-12 -20 -14 -14 -5 12 4 9 9 14 11
11 3 -2 0 -13 -6 -23z m1712 -13 c-3 -12 -8 -19 -11 -16 -5 6 5 36 12 36 2 0
2 -9 -1 -20z m-1598 -57 c4 -15 2 -23 -6 -23 -7 0 -10 3 -6 6 3 4 -1 13 -9 21
-8 8 -11 19 -8 25 8 12 20 0 29 -29z m76 -53 c4 0 15 -13 23 -29 12 -22 13
-37 5 -65 -11 -41 -16 -43 -36 -18 -13 15 -14 15 -8 -8 6 -24 5 -24 -9 -6 -21
26 -22 64 -2 47 9 -7 17 -8 20 -2 3 5 -6 18 -20 28 -26 19 -26 20 -10 45 12
18 14 28 6 33 -6 3 -7 11 -3 18 4 7 10 0 16 -16 5 -15 13 -27 18 -27z m-41 6
c0 -3 -4 -8 -10 -11 -5 -3 -10 -1 -10 4 0 6 5 11 10 11 6 0 10 -2 10 -4z m181
-11 c3 -21 -3 -50 -11 -59 -5 -5 -1 -21 11 -38 l20 -28 -23 0 c-25 0 -60 40
-36 40 7 1 1 8 -14 16 -34 18 -36 24 -5 17 22 -5 22 -5 2 11 -11 10 -15 15 -9
12 14 -7 38 19 30 33 -4 5 3 9 14 8 11 -1 21 -6 21 -12z m-291 1 c0 -3 -4 -8
-10 -11 -5 -3 -10 -1 -10 4 0 6 5 11 10 11 6 0 10 -2 10 -4z m86 -29 c3 -23
-13 -31 -30 -14 -11 11 -12 17 -3 26 15 15 30 9 33 -12z m-161 -15 c-3 -3 -11
0 -18 7 -9 10 -8 11 6 5 10 -3 15 -9 12 -12z m18 -37 c4 3 5 2 2 -2 -3 -3 5
-17 17 -30 12 -12 18 -26 14 -30 -4 -5 -13 0 -20 9 -8 11 -16 14 -23 7 -6 -6
-16 -2 -28 11 -16 18 -17 20 -2 14 9 -3 17 -10 17 -16 0 -5 5 -6 11 -3 7 5 6
12 -4 23 -26 31 -32 49 -10 29 11 -9 23 -15 26 -12z m364 -17 c-3 -8 -6 -5 -6
6 -1 11 2 17 5 13 3 -3 4 -12 1 -19z m-793 -4 c3 -8 2 -12 -4 -9 -6 3 -10 10
-10 16 0 14 7 11 14 -7z m794 -64 c7 -11 20 -20 29 -20 9 0 13 -3 10 -6 -3 -4
-2 -15 3 -24 7 -13 6 -20 -6 -24 -14 -5 -14 -7 0 -22 18 -17 21 -60 6 -69 -6
-4 -9 -1 -8 6 2 7 -7 18 -20 24 -12 5 -21 17 -20 25 1 8 -1 21 -5 28 -5 8 -1
15 11 20 16 6 18 12 11 31 -6 15 -14 21 -24 17 -10 -4 -15 1 -15 14 0 26 12
25 28 0z m-774 -43 c-4 -12 -2 -17 4 -13 6 3 14 1 17 -5 13 -21 -4 -21 -31 0
-22 17 -23 21 -8 21 14 0 15 3 6 12 -17 17 -15 33 3 18 10 -8 13 -21 9 -33z
m764 20 c14 5 15 -6 3 -26 -15 -23 -41 -22 -41 1 0 14 -5 18 -15 14 -9 -3 -15
0 -15 9 0 10 7 12 28 6 15 -4 33 -6 40 -4z m-185 -17 c3 -11 1 -18 -4 -14 -5
3 -9 12 -9 20 0 20 7 17 13 -6z m407 -13 c0 -5 -4 -5 -10 -2 -5 3 -10 14 -10
23 0 15 2 15 10 2 5 -8 10 -19 10 -23z m-43 -3 c-9 -9 -28 6 -21 18 4 6 10 6
17 -1 6 -6 8 -13 4 -17z m-282 1 c39 1 112 -35 98 -49 -4 -3 -18 1 -32 10 -17
12 -26 14 -29 6 -2 -7 -8 -12 -13 -12 -6 0 -7 5 -3 12 5 8 0 9 -14 6 -16 -4
-22 -2 -22 9 0 9 -6 13 -14 10 -8 -3 -20 2 -28 11 -11 15 -11 15 2 6 8 -6 33
-10 55 -9z m966 -32 c13 -16 12 -17 -3 -4 -17 13 -22 21 -14 21 2 0 10 -8 17
-17z m-1041 -9 c0 -8 -4 -12 -10 -9 -5 3 -10 10 -10 16 0 5 5 9 10 9 6 0 10
-7 10 -16z m34 1 c3 -8 1 -15 -4 -15 -6 0 -10 7 -10 15 0 8 2 15 4 15 2 0 6
-7 10 -15z m-574 -15 c0 -5 -5 -10 -11 -10 -5 0 -7 5 -4 10 3 6 8 10 11 10 2
0 4 -4 4 -10z m15 -50 c3 -6 -1 -7 -9 -4 -18 7 -21 14 -7 14 6 0 13 -4 16 -10z
m685 -7 c0 -5 -5 -15 -10 -23 -8 -12 -10 -11 -10 8 0 12 5 22 10 22 6 0 10 -3
10 -7z m100 -15 c0 10 4 10 19 0 15 -9 17 -15 9 -25 -9 -11 -14 -10 -29 3 -11
10 -19 22 -19 28 0 6 5 4 10 -4 7 -10 10 -11 10 -2z m-949 -20 c0 -10 2 -10 6
0 2 6 9 10 14 6 18 -10 9 -24 -16 -24 -16 0 -25 6 -25 15 0 18 20 20 21 3z
m176 6 c-3 -3 -12 -4 -19 -1 -8 3 -5 6 6 6 11 1 17 -2 13 -5z m-232 -15 c4 -5
-3 -9 -14 -9 -26 0 -35 15 -11 17 11 1 22 -2 25 -8z m-87 -24 c-3 -3 -9 2 -12
12 -6 14 -5 15 5 6 7 -7 10 -15 7 -18z m169 -21 c2 -6 -3 -11 -12 -11 -8 0
-15 7 -15 15 0 15 22 12 27 -4z m57 8 c2 -4 1 -14 -3 -21 -6 -9 -10 -7 -14 8
-5 20 7 29 17 13z m10 -58 c3 -8 2 -12 -4 -9 -6 3 -10 10 -10 16 0 14 7 11 14
-7z m61 -4 c4 -6 11 -8 16 -5 5 4 16 -1 25 -9 18 -19 4 -22 -15 -3 -10 10 -12
8 -9 -8 2 -11 10 -19 16 -18 7 2 12 -3 12 -10 0 -23 -13 -28 -30 -12 -16 14
-18 14 -24 0 -3 -9 -2 -13 4 -10 6 3 10 2 10 -4 0 -5 12 -7 27 -5 15 3 24 2
20 -2 -4 -4 -2 -13 4 -20 11 -14 -6 -14 -28 -1 -14 9 -18 -5 -6 -17 10 -10 12
-35 3 -41 -5 -3 -7 3 -5 12 1 10 -7 28 -19 41 -24 26 -31 86 -9 78 17 -7 17 8
-1 23 -11 9 -15 9 -19 -1 -4 -8 -6 -7 -6 5 -1 18 24 24 34 7z m672 -46 c-3 -3
-12 -4 -19 -1 -8 3 -5 6 6 6 11 1 17 -2 13 -5z m47 -54 c6 -8 1 -7 -11 4 -13
10 -20 23 -16 29 4 7 8 6 11 -3 3 -8 10 -22 16 -30z m-604 -20 c0 -5 -4 -10
-10 -10 -5 0 -10 5 -10 10 0 6 5 10 10 10 6 0 10 -4 10 -10z m-30 -35 c0 -8
-7 -11 -20 -8 -11 3 -20 9 -20 14 0 5 7 5 17 2 12 -5 14 -3 8 7 -5 9 -4 11 3
6 7 -4 12 -13 12 -21z m47 -11 c-3 -3 -12 -4 -19 -1 -8 3 -5 6 6 6 11 1 17 -2
13 -5z m-277 -8 c0 -3 -4 -8 -10 -11 -5 -3 -10 -1 -10 4 0 6 5 11 10 11 6 0
10 -2 10 -4z m196 -27 c19 -22 19 -22 -3 -8 -13 8 -23 17 -23 21 0 12 6 9 26
-13z m57 1 c3 -11 1 -18 -4 -14 -5 3 -9 12 -9 20 0 20 7 17 13 -6z m64 -52 c2
-10 -1 -18 -6 -18 -6 0 -8 9 -6 19 2 11 -3 22 -11 25 -9 3 -12 11 -8 17 8 13
26 -13 31 -43z m-47 -6 c13 -11 12 -12 -5 -6 -21 8 -35 23 -35 38 0 6 6 3 13
-5 6 -8 19 -20 27 -27z m2221 -2 c6 0 7 5 4 10 -3 6 -1 10 4 10 6 0 11 -6 11
-14 0 -8 3 -23 6 -33 5 -17 5 -17 -6 0 -10 15 -14 16 -28 5 -11 -9 -14 -9 -9
-1 5 8 -1 15 -18 19 -14 3 -25 10 -25 14 0 14 45 16 48 3 2 -7 8 -13 13 -13z
m-2491 -6 c0 -8 -5 -12 -10 -9 -6 4 -8 11 -5 16 9 14 15 11 15 -7z m24 0 c3
-8 2 -12 -4 -9 -6 3 -10 10 -10 16 0 14 7 11 14 -7z"/>
<path d="M1325 3591 c-3 -5 -1 -12 5 -16 5 -3 10 1 10 9 0 18 -6 21 -15 7z"/>
<path d="M1900 759 c0 -5 5 -7 10 -4 6 3 10 8 10 11 0 2 -4 4 -10 4 -5 0 -10
-5 -10 -11z"/>
<path d="M2096 4502 c10 -23 21 -42 26 -42 14 0 -1 42 -23 65 -19 19 -19 19
-3 -23z"/>
<path d="M1801 4394 c0 -11 3 -14 6 -6 3 7 2 16 -1 19 -3 4 -6 -2 -5 -13z"/>
<path d="M2510 4406 c0 -2 8 -10 18 -17 15 -13 16 -12 3 4 -13 16 -21 21 -21
13z"/>
<path d="M2150 4397 c0 -2 11 -31 25 -65 14 -34 25 -69 25 -78 0 -16 -2 -15
-20 1 -22 20 -28 8 -7 -15 6 -8 3 -7 -9 3 -11 9 -26 17 -32 17 -7 0 -12 8 -13
18 0 13 -3 12 -11 -5 -6 -13 -16 -23 -23 -23 -12 0 -75 -73 -75 -87 0 -4 5 -1
10 7 9 13 11 13 21 0 8 -12 9 -9 3 10 l-7 25 22 -25 c22 -25 22 -25 18 -2 -6
28 19 30 28 2 4 -11 11 -18 16 -15 5 4 9 1 9 -4 0 -6 5 -11 11 -11 5 0 7 6 3
13 -5 9 -3 9 7 -1 11 -10 11 -14 1 -21 -10 -6 -10 -10 2 -21 9 -7 14 -16 11
-20 -7 -12 -56 -5 -65 10 -5 8 -9 7 -13 -5 -5 -11 -3 -14 5 -9 7 5 9 2 6 -8
-5 -12 1 -13 40 -7 26 4 53 8 60 8 6 1 12 8 12 16 0 8 5 15 11 15 5 0 7 5 4
10 -4 6 -10 8 -15 5 -17 -10 -21 15 -9 57 l13 43 10 -45 c6 -25 15 -51 19 -57
5 -7 5 -17 2 -23 -4 -6 5 -10 19 -10 l26 0 -17 43 c-9 23 -19 44 -22 47 -10 9
-6 45 4 40 6 -3 9 -9 7 -13 -1 -5 3 -5 9 -1 9 5 10 1 7 -14 -3 -12 -1 -23 6
-25 6 -2 11 -12 11 -23 0 -10 6 -18 13 -16 7 1 15 -5 18 -13 4 -10 20 -15 50
-15 45 0 53 12 30 48 -4 7 -6 16 -2 19 3 3 -2 12 -10 20 -21 21 -26 12 -10
-19 15 -29 12 -40 -9 -32 -7 3 -15 -3 -18 -13 -3 -12 -5 -13 -6 -3 0 8 -11 20
-23 25 -16 7 -30 30 -45 73 -25 74 -33 86 -33 49 0 -30 -18 -36 -26 -9 -13 40
-58 132 -66 132 -4 0 -8 -1 -8 -3z"/>
<path d="M2428 4394 c-4 -3 0 -20 7 -39 8 -18 12 -34 10 -37 -2 -2 5 -4 15 -5
22 -2 24 5 10 27 -9 13 -10 13 -10 0 -1 -8 -7 -1 -14 15 -7 17 -11 33 -9 38 5
8 -1 9 -9 1z"/>
<path d="M1830 4361 c0 -6 4 -13 10 -16 6 -3 7 1 4 9 -7 18 -14 21 -14 7z"/>
<path d="M2500 4356 c0 -2 9 -6 20 -9 11 -3 18 -1 14 4 -5 9 -34 13 -34 5z"/>
<path d="M2365 4320 c-4 -6 -13 -9 -21 -6 -11 4 -11 0 -2 -19 9 -19 19 -25 44
-25 27 0 32 3 28 18 -5 14 -3 14 10 -2 21 -26 21 1 1 28 -14 19 -15 19 -15 1
0 -17 -1 -17 -19 -1 -13 12 -21 14 -26 6z m28 -23 c3 -8 -3 -14 -14 -14 -10
-1 -19 3 -19 8 0 6 5 7 10 4 6 -3 10 -1 10 4 0 15 7 14 13 -2z"/>
<path d="M2461 4288 c-1 -10 6 -18 14 -18 8 0 15 8 15 18 0 13 -2 14 -9 3 -7
-11 -9 -11 -14 0 -4 10 -6 9 -6 -3z"/>
<path d="M1831 4264 c0 -16 4 -38 9 -49 6 -13 7 -5 3 25 -7 53 -13 66 -12 24z"/>
<path d="M2618 4255 c-3 -14 -1 -25 3 -25 5 0 9 11 9 25 0 14 -2 25 -4 25 -2
0 -6 -11 -8 -25z"/>
<path d="M2642 4268 c2 -5 8 -9 13 -9 5 0 11 4 13 9 1 5 -4 9 -13 9 -9 0 -14
-4 -13 -9z"/>
<path d="M2940 4211 c0 -6 4 -13 10 -16 6 -3 7 1 4 9 -7 18 -14 21 -14 7z"/>
<path d="M2517 4173 c4 -34 2 -42 -13 -46 -17 -4 -16 -5 2 -6 28 -1 35 27 18
65 -13 29 -13 28 -7 -13z"/>
<path d="M1851 4174 c0 -11 3 -14 6 -6 3 7 2 16 -1 19 -3 4 -6 -2 -5 -13z"/>
<path d="M1951 4154 c-2 -26 31 -114 43 -114 18 0 84 29 71 31 -5 1 -13 1 -18
0 -4 -1 -12 10 -17 23 -11 30 -22 37 -40 25 -10 -6 -12 -11 -4 -16 15 -11 25
-41 14 -48 -4 -3 -17 21 -28 52 -11 32 -21 53 -21 47z m84 -92 c-8 -8 -25 10
-25 26 0 13 2 13 14 -4 8 -10 13 -21 11 -22z"/>
<path d="M1863 4122 c4 -19 3 -31 -2 -27 -5 3 -12 -1 -14 -7 -3 -7 -6 -1 -6
14 -1 20 -5 26 -16 22 -8 -4 -15 -11 -15 -18 0 -18 -37 -38 -43 -23 -4 9 -6 9
-6 -1 -1 -7 -5 -11 -10 -8 -5 4 -7 -3 -4 -13 3 -11 12 -22 20 -25 8 -3 11 -1
8 4 -3 6 1 7 10 4 12 -5 13 -10 4 -20 -8 -10 -7 -17 5 -29 9 -9 16 -13 16 -9
0 5 5 3 11 -3 6 -6 18 -9 25 -6 8 3 14 0 14 -5 0 -6 -13 -9 -30 -7 -16 2 -30
-1 -30 -6 0 -6 5 -7 10 -4 16 10 25 -25 12 -46 -7 -10 -12 -29 -11 -41 l0 -23
10 23 c5 13 13 20 19 17 5 -3 10 1 10 9 0 10 6 13 15 10 8 -4 15 -1 15 6 0 6
4 8 10 5 6 -4 5 -11 -3 -19 -6 -8 -15 -12 -19 -10 -4 3 -12 -14 -18 -37 -7
-26 -18 -43 -31 -46 -10 -3 -16 -9 -13 -14 3 -5 10 -7 15 -4 5 3 6 -1 3 -10
-5 -13 -9 -13 -22 -3 -13 11 -15 10 -10 -9 4 -14 0 -24 -10 -28 -14 -5 -14 -7
-2 -16 12 -7 11 -9 -5 -7 -11 2 -21 0 -22 -4 -7 -19 -2 -48 7 -48 5 0 7 7 4
15 -4 10 -2 13 8 10 19 -8 62 9 86 33 10 10 26 19 34 19 34 0 218 78 218 93 0
12 2 12 9 2 7 -11 21 -10 78 7 39 12 78 21 87 21 9 0 16 4 16 10 0 5 7 7 15 4
8 -4 22 -4 30 0 13 5 13 10 -3 40 -9 20 -23 36 -30 36 -8 0 -12 13 -10 42 2
32 -1 43 -13 46 -14 2 -16 -4 -12 -41 5 -40 3 -45 -18 -50 -34 -9 -58 16 -41
43 10 17 10 20 -3 20 -13 0 -17 -8 -17 -30 0 -3 3 -15 7 -28 6 -21 4 -22 -28
-19 -26 3 -34 0 -33 -11 0 -8 -5 -17 -11 -19 -9 -3 -13 7 -13 32 0 31 3 36 22
33 11 -2 23 3 26 11 3 8 0 11 -7 7 -6 -4 -11 -2 -11 4 0 7 8 9 19 5 12 -3 21
0 25 10 3 8 16 15 30 15 14 0 28 5 31 10 3 6 3 10 -2 10 -20 0 -176 -41 -243
-64 -78 -26 -90 -26 -90 3 0 18 -49 162 -58 171 -3 3 -2 -10 1 -28z m8 -85
c-13 -13 -15 1 -4 30 7 17 8 17 11 -1 2 -10 -1 -23 -7 -29z m-31 26 c0 -3 -5
-14 -12 -26 -11 -21 -11 -21 -18 -2 -4 11 -6 23 -4 26 3 6 34 8 34 2z m52 -70
c-6 -3 -10 -8 -8 -12 3 -4 0 -13 -5 -21 -7 -11 -8 -8 -5 10 3 14 5 32 5 40 1
12 3 12 14 1 10 -11 9 -14 -1 -18z m176 -39 c11 6 42 -19 42 -34 0 -15 -31
-40 -49 -40 -10 0 -24 7 -31 15 -10 13 -10 19 2 33 9 9 13 24 11 32 -4 12 -3
13 5 1 5 -7 14 -11 20 -7z m242 -55 c0 -12 -33 -20 -43 -10 -5 5 -7 17 -4 27
4 16 5 15 6 -3 0 -13 5 -23 9 -23 17 0 21 13 11 34 -10 20 -10 20 5 2 9 -11
16 -23 16 -27z m-295 0 c8 -35 8 -35 -27 -44 -21 -5 -29 -2 -37 14 -9 17 -8
24 9 41 28 28 47 25 55 -11z m105 -30 c0 -11 -4 -18 -10 -14 -5 3 -7 12 -3 20
7 21 13 19 13 -6z m-157 -41 c-2 -4 -11 -4 -19 -1 -11 4 -15 0 -13 -13 1 -10
-3 -30 -9 -44 -6 -14 -11 -19 -11 -12 -1 8 -6 10 -13 6 -19 -12 -57 -14 -63
-3 -4 5 5 14 19 20 16 8 23 18 21 30 -5 23 -1 24 16 2 12 -14 12 -16 0 -8 -10
5 -12 4 -7 -4 10 -15 29 -3 22 14 -3 8 4 17 15 20 10 4 19 11 19 16 0 6 -5 7
-12 3 -7 -5 -8 -3 -4 5 6 9 13 8 26 -6 9 -10 16 -21 13 -25z m59 -3 c3 -13 1
-22 -3 -19 -9 5 -13 44 -5 44 2 0 6 -11 8 -25z m-22 -26 c0 -11 -4 -17 -10
-14 -5 3 -10 13 -10 21 0 8 5 14 10 14 6 0 10 -9 10 -21z m-135 -59 c-3 -5
-12 -10 -18 -10 -7 0 -6 4 3 10 19 12 23 12 15 0z"/>
<path d="M2067 3923 c-4 -3 -7 -11 -7 -17 0 -6 5 -5 12 2 6 6 9 14 7 17 -3 3
-9 2 -12 -2z"/>
<path d="M1980 3890 c-9 -6 -10 -10 -3 -10 6 0 15 5 18 10 8 12 4 12 -15 0z"/>
<path d="M2046 4135 c4 -8 8 -15 10 -15 2 0 4 7 4 15 0 8 -4 15 -10 15 -5 0
-7 -7 -4 -15z"/>
<path d="M2445 4142 c-21 -15 -15 -32 13 -32 23 1 25 2 9 11 -9 6 -15 14 -12
20 7 11 4 11 -10 1z"/>
<path d="M1780 4121 c0 -6 4 -13 10 -16 6 -3 7 1 4 9 -7 18 -14 21 -14 7z"/>
<path d="M3236 4047 c-2 -10 -2 -16 1 -13 4 3 13 0 21 -7 13 -10 15 -9 10 5
-9 24 16 30 30 7 13 -20 42 -26 42 -9 0 6 -6 10 -14 10 -8 0 -16 7 -20 15 -8
22 -63 16 -70 -8z"/>
<path d="M1552 3988 c-7 -7 -12 -16 -12 -22 0 -5 7 -1 15 10 15 18 15 18 13 0
-2 -10 4 -21 12 -23 13 -4 13 -3 0 6 -13 9 -12 11 3 11 16 0 17 2 3 15 -18 18
-19 18 -34 3z"/>
<path d="M1456 3973 c-6 -14 -5 -15 5 -6 7 7 10 15 7 18 -3 3 -9 -2 -12 -12z"/>
<path d="M1442 3903 c-1 -20 1 -33 5 -29 10 9 13 55 4 60 -4 3 -8 -11 -9 -31z"/>
<path d="M1335 3884 c-9 -14 -14 -31 -11 -37 2 -7 5 -4 5 5 1 11 6 15 15 12
11 -4 13 0 9 18 -4 18 -3 20 6 8 7 -9 11 -10 11 -3 0 24 -18 22 -35 -3z"/>
<path d="M1460 3845 c1 -19 28 -47 35 -36 3 6 0 11 -7 11 -10 0 -10 2 1 9 9 6
10 11 2 15 -6 4 -11 1 -11 -6 0 -9 -3 -9 -10 2 -5 8 -10 11 -10 5z"/>
<path d="M1031 3710 c0 -29 1 -32 10 -17 7 11 7 23 0 35 -9 14 -10 11 -10 -18z"/>
<path d="M1347 3723 c-10 -9 -9 -23 2 -23 5 0 11 7 15 15 5 15 -5 20 -17 8z"/>
<path d="M1241 3704 c0 -11 3 -14 6 -6 3 7 2 16 -1 19 -3 4 -6 -2 -5 -13z"/>
<path d="M1032 3640 c0 -19 2 -27 5 -17 2 9 2 25 0 35 -3 9 -5 1 -5 -18z"/>
<path d="M1081 3654 c0 -11 3 -14 6 -6 3 7 2 16 -1 19 -3 4 -6 -2 -5 -13z"/>
<path d="M1154 3658 c-4 -6 -3 -8 4 -4 6 3 13 -2 15 -11 4 -14 5 -13 6 5 1 23
-13 30 -25 10z"/>
<path d="M1197 3604 c-4 -4 -7 -17 -7 -28 1 -19 1 -20 11 -3 11 19 8 43 -4 31z"/>
<path d="M1036 3515 c3 -49 7 -91 10 -94 2 -2 4 6 4 18 0 14 4 20 11 15 8 -4
8 -1 1 13 -6 10 -9 38 -7 61 2 24 -3 48 -11 59 -11 15 -12 5 -8 -72z"/>
<path d="M1080 3575 c0 -14 2 -25 4 -25 2 0 6 11 8 25 3 14 1 25 -3 25 -5 0
-9 -11 -9 -25z"/>
<path d="M1137 3543 c-12 -11 -8 -53 5 -53 6 0 8 3 5 7 -4 3 -3 11 3 17 10 13
-2 40 -13 29z"/>
<path d="M1190 3539 c0 -5 -4 -7 -10 -4 -5 3 -10 2 -10 -3 0 -6 7 -12 15 -16
8 -3 15 -4 15 -2 0 3 3 11 6 20 3 9 1 16 -5 16 -6 0 -11 -5 -11 -11z"/>
<path d="M1100 3520 c0 -5 5 -10 11 -10 5 0 7 5 4 10 -3 6 -8 10 -11 10 -2 0
-4 -4 -4 -10z"/>
<path d="M948 3182 c-15 -10 -30 -23 -33 -30 -3 -7 7 -4 21 7 20 16 30 18 40
10 14 -11 8 -39 -8 -39 -6 0 -8 7 -4 15 9 23 -2 18 -42 -20 -20 -20 -29 -33
-19 -29 24 9 21 -11 -5 -30 -20 -15 -21 -15 -2 -7 28 13 51 41 34 41 -10 0
-10 3 0 15 7 8 18 15 24 15 6 0 4 -4 -4 -10 -8 -5 -11 -12 -7 -16 4 -4 19 3
34 17 20 18 25 20 20 7 -4 -10 -2 -18 4 -18 6 0 -7 -19 -30 -41 -23 -23 -44
-39 -47 -37 -3 3 12 22 33 42 21 20 33 36 26 36 -6 0 -18 -8 -25 -18 -7 -9
-29 -30 -48 -46 -27 -22 -30 -27 -13 -22 19 6 22 4 17 -11 -3 -11 -2 -14 3 -7
4 5 26 23 48 39 22 17 43 34 47 40 5 7 8 6 8 0 0 -6 -5 -16 -11 -22 -7 -7 -7
-13 0 -17 6 -4 -2 -18 -20 -35 -27 -26 -28 -29 -10 -34 11 -2 24 0 30 6 8 8
11 5 11 -11 0 -50 37 -91 48 -51 3 11 2 11 -7 -1 -9 -12 -11 -10 -11 10 0 14
-9 40 -20 58 -11 17 -16 32 -11 32 4 0 16 -16 27 -35 10 -19 24 -37 32 -40 7
-2 11 -1 7 4 -3 5 0 11 5 13 6 2 2 13 -10 26 -25 26 -15 30 13 5 20 -18 20
-17 14 15 -4 21 -3 31 3 27 6 -3 10 -1 10 5 0 6 -10 8 -26 4 -19 -5 -25 -4
-20 5 4 6 1 11 -8 11 -9 0 -16 5 -16 11 0 5 4 8 9 4 16 -9 24 15 11 30 -20 25
-3 17 25 -10 32 -33 32 -19 -1 18 -24 28 -26 28 -49 13 -14 -9 -25 -12 -25 -7
0 5 9 13 20 16 11 4 17 11 14 17 -4 6 -10 6 -17 -1 -17 -17 -40 -14 -33 5 4 9
2 13 -5 8 -7 -4 -9 1 -5 17 3 13 3 18 0 12 -3 -7 -10 -13 -15 -13 -6 0 -7 5
-4 10 8 12 6 12 -27 -8z m112 -152 c0 -5 -5 -10 -11 -10 -5 0 -7 5 -4 10 3 6
8 10 11 10 2 0 4 -4 4 -10z"/>
<path d="M1080 3070 c0 -5 5 -10 10 -10 6 0 10 5 10 10 0 6 -4 10 -10 10 -5 0
-10 -4 -10 -10z"/>
<path d="M970 3030 c-13 -11 -19 -20 -14 -20 14 1 48 29 42 35 -2 3 -15 -4
-28 -15z"/>
<path d="M889 2998 c-5 -17 -4 -48 2 -48 13 0 20 18 9 25 -6 4 -8 11 -5 16 4
5 4 9 1 9 -3 0 -6 -1 -7 -2z"/>
<path d="M920 2990 c-8 -5 -10 -10 -5 -10 6 0 17 5 25 10 8 5 11 10 5 10 -5 0
-17 -5 -25 -10z"/>
<path d="M996 2945 c-3 -9 2 -32 12 -52 25 -47 35 -21 12 30 -13 29 -19 34
-24 22z"/>
<path d="M915 2920 c-3 -6 1 -7 9 -4 18 7 21 14 7 14 -6 0 -13 -4 -16 -10z"/>
<path d="M1942 2921 c-11 -6 -10 -10 4 -15 9 -3 19 -4 22 -1 3 3 0 5 -7 5 -7
0 -9 5 -6 10 7 12 4 12 -13 1z"/>
<path d="M2055 2860 c11 -5 27 -9 35 -9 9 0 8 4 -5 9 -11 5 -27 9 -35 9 -9 0
-8 -4 5 -9z"/>
<path d="M1003 2848 c3 -9 2 -18 -3 -20 -5 -2 -6 -9 -1 -16 6 -11 9 -9 13 6 3
11 1 26 -4 33 -8 11 -9 10 -5 -3z"/>
<path d="M970 2815 c0 -5 5 -17 10 -25 5 -8 10 -10 10 -5 0 6 -5 17 -10 25 -5
8 -10 11 -10 5z"/>
<path d="M3000 2724 c-61 -21 -83 -34 -118 -72 -43 -48 -57 -76 -50 -109 3
-15 13 -18 53 -17 91 0 175 9 175 16 0 15 41 8 46 -7 4 -8 11 -15 17 -15 7 0
7 4 -1 12 -19 19 -14 28 12 26 19 -2 22 -5 14 -15 -15 -18 -7 -17 78 13 42 14
81 23 88 21 8 -3 18 -1 23 4 6 6 20 6 37 -1 38 -14 55 -12 34 4 -10 7 -18 18
-18 25 0 6 -5 11 -12 11 -6 0 -31 9 -55 21 -67 32 -171 45 -235 29 -29 -7 -77
-16 -107 -20 l-55 -6 38 32 c89 77 279 73 370 -8 53 -46 72 -47 49 -1 -40 83
-226 110 -383 57z m193 -134 c-7 -28 -13 -25 -13 6 0 14 4 23 9 20 5 -3 7 -15
4 -26z"/>
<path d="M900 2700 c0 -5 5 -10 11 -10 5 0 7 5 4 10 -3 6 -8 10 -11 10 -2 0
-4 -4 -4 -10z"/>
<path d="M3832 2604 l-23 -35 20 -57 c11 -31 22 -70 26 -85 3 -15 10 -25 14
-22 5 3 13 -7 19 -22 l9 -28 12 39 c9 24 12 70 9 124 -4 74 -8 87 -27 103 -31
25 -32 24 -59 -17z"/>
<path d="M1960 2575 c-36 -7 -91 -25 -124 -41 -69 -33 -156 -113 -156 -145 0
-19 2 -20 17 -8 10 8 38 34 63 59 117 118 284 154 422 92 l43 -20 -80 0 c-143
-1 -211 -17 -287 -68 -29 -20 -64 -42 -78 -49 -14 -7 -41 -28 -60 -45 l-35
-32 40 7 c22 5 49 9 60 10 84 8 144 18 140 24 -3 6 101 29 155 34 9 1 15 12
16 29 1 36 7 41 33 33 26 -8 27 -32 2 -40 -10 -3 -21 -15 -24 -26 -4 -13 -10
-18 -18 -13 -8 4 -10 3 -5 -5 6 -9 13 -8 29 4 26 18 25 18 104 40 34 10 69 15
77 12 26 -10 19 23 -16 74 -26 38 -41 49 -85 63 -70 23 -153 26 -233 11z"/>
<path d="M1518 2393 c7 -3 16 -2 19 1 4 3 -2 6 -13 5 -11 0 -14 -3 -6 -6z"/>
<path d="M2040 2361 c0 -5 -9 -7 -20 -4 -11 3 -20 0 -20 -6 0 -7 -8 -8 -24 -1
-13 5 -27 6 -30 3 -12 -13 -5 -19 22 -17 15 0 42 2 60 2 21 1 32 7 32 17 0 8
-4 15 -10 15 -5 0 -10 -4 -10 -9z"/>
<path d="M2186 2305 c-16 -14 -25 -25 -19 -25 5 0 20 11 33 25 30 32 23 32
-14 0z"/>
<path d="M2120 2265 c-14 -8 -20 -14 -14 -15 5 0 19 7 30 15 24 18 16 19 -16
0z"/>
<path d="M1990 2230 c-38 -12 -47 -18 -30 -19 14 -1 48 8 75 19 63 24 28 25
-45 0z"/>
<path d="M863 2193 c-7 -2 -13 -11 -13 -18 0 -7 -5 -15 -11 -17 -7 -2 -13 -17
-15 -33 -2 -20 0 -25 5 -16 5 7 14 11 20 7 15 -10 49 10 56 34 3 11 14 20 23
20 15 1 14 3 -2 15 -20 15 -40 18 -63 8z"/>
<path d="M3810 2129 c0 -19 4 -41 9 -48 6 -10 8 1 4 30 -7 55 -13 63 -13 18z"/>
<path d="M3032 2100 c12 -17 23 -30 25 -30 8 0 -22 50 -33 54 -9 3 -5 -7 8
-24z"/>
<path d="M3821 2044 c0 -11 3 -14 6 -6 3 7 2 16 -1 19 -3 4 -6 -2 -5 -13z"/>
<path d="M3158 1981 c-14 -16 -12 -22 18 -57 43 -49 51 -74 30 -89 -20 -15
-20 -28 -1 -65 14 -27 14 -29 -2 -23 -10 4 -21 11 -25 17 -5 7 -8 3 -8 -8 0
-11 -5 -16 -14 -13 -8 3 -17 -1 -20 -9 -7 -19 10 -54 26 -54 6 0 8 -3 5 -7 -4
-3 -15 1 -24 9 -35 30 -48 33 -30 7 9 -13 17 -37 18 -54 0 -29 1 -29 11 -7 12
23 28 30 28 11 0 -7 7 -17 16 -24 21 -15 16 -16 -96 -21 -171 -9 -196 -12
-245 -30 -31 -11 -79 -18 -127 -18 -43 -1 -78 -5 -78 -9 0 -5 -4 -5 -10 -2 -5
3 -10 1 -10 -4 0 -6 -9 -11 -20 -11 -11 0 -20 5 -20 11 0 7 -7 8 -17 4 -10 -4
-25 -8 -33 -10 -8 -2 -37 -9 -65 -15 -27 -7 -57 -14 -65 -15 -8 -1 -28 -8 -45
-15 -16 -6 -47 -14 -69 -17 -36 -6 -38 -5 -27 15 15 29 14 52 -3 52 -19 0 -32
40 -16 50 8 5 7 9 -4 13 -17 7 -21 -14 -17 -78 1 -23 -1 -27 -8 -15 -6 8 -18
15 -27 15 -10 0 -19 6 -22 14 -3 9 1 11 16 7 19 -7 20 -4 15 71 -2 43 -8 82
-13 87 -5 5 -6 14 -4 21 3 7 1 16 -5 20 -6 3 -9 0 -5 -8 3 -10 -1 -14 -11 -14
-10 1 -25 -14 -38 -37 -26 -47 -43 -67 -50 -60 -3 3 -8 -3 -12 -13 -3 -10 -24
-33 -47 -51 -31 -25 -43 -30 -49 -20 -6 8 -9 9 -9 2 0 -6 -13 -14 -29 -17 -28
-6 -94 -57 -74 -57 6 0 14 -16 17 -35 4 -19 12 -35 19 -35 14 0 39 -49 31 -61
-2 -4 8 -7 23 -6 25 2 29 -3 49 -58 11 -33 26 -71 33 -85 l12 -25 -6 25 c-3
14 -8 43 -11 65 -4 22 -10 45 -15 50 -4 6 -1 19 7 30 12 16 18 17 32 8 9 -6
16 -16 15 -22 -2 -6 2 -11 8 -11 6 0 9 7 5 15 -3 8 -3 22 0 30 8 19 61 11 116
-16 21 -11 48 -19 61 -19 13 0 60 -11 105 -24 44 -14 89 -22 100 -19 11 2 23
0 26 -6 9 -15 43 -14 48 0 2 7 18 13 36 14 17 1 29 -2 26 -7 -3 -5 5 -6 18 -3
12 3 39 7 58 9 88 11 176 29 185 37 5 5 23 9 41 9 19 0 34 6 38 15 6 17 42 20
51 5 10 -17 25 -11 34 12 l8 22 28 -28 28 -28 65 64 c36 34 62 57 58 51 -15
-27 20 -1 44 33 14 19 45 48 69 65 36 25 46 28 59 17 13 -11 15 -10 9 5 -6 15
-3 18 15 15 13 -2 24 -11 26 -22 3 -14 0 -17 -13 -13 -9 4 -14 3 -10 -3 3 -6
15 -10 25 -10 10 0 21 -6 23 -12 3 -7 6 -3 6 10 1 12 7 22 16 22 8 0 15 7 15
15 0 8 9 20 20 27 11 7 20 18 20 25 0 7 4 13 9 13 5 0 9 6 8 13 -1 33 4 46 17
41 9 -3 15 4 18 20 3 14 1 23 -3 20 -5 -3 -9 5 -9 16 0 32 -47 65 -89 63 -21
-1 -43 5 -53 14 -10 8 -24 13 -32 10 -9 -4 -18 -2 -21 3 -4 6 -15 10 -26 10
-11 0 -18 4 -15 8 3 4 -13 19 -35 33 -22 13 -42 34 -45 47 -4 12 -12 22 -18
22 -7 0 -21 7 -32 15 -15 12 -16 16 -6 23 11 8 11 10 -1 15 -8 3 -21 -3 -29
-12z m7 -269 c-3 -3 -11 0 -18 7 -9 10 -8 11 6 5 10 -3 15 -9 12 -12z m42 -4
c-3 -8 -6 -5 -6 6 -1 11 2 17 5 13 3 -3 4 -12 1 -19z m53 2 c0 -5 -2 -10 -4
-10 -3 0 -8 5 -11 10 -3 6 -1 10 4 10 6 0 11 -4 11 -10z m-1079 -130 c9 13 10
13 6 0 -2 -8 -11 -14 -21 -12 -9 2 -16 -4 -16 -13 0 -8 -4 -15 -9 -15 -4 0 -3
16 3 35 10 32 11 33 19 12 7 -18 10 -19 18 -7z m883 -66 c7 -25 8 -26 21 -8
18 25 26 15 32 -39 6 -47 -8 -67 -31 -48 -10 9 -15 8 -20 -5 -4 -12 -15 -15
-36 -12 -18 3 -35 -1 -41 -9 -6 -7 -22 -13 -36 -13 -13 0 -26 -6 -29 -14 -6
-17 -97 -41 -120 -32 -9 3 -25 -1 -37 -9 -24 -17 -127 -21 -127 -5 0 7 -6 7
-19 0 -25 -13 -64 -13 -77 0 -7 7 -16 4 -29 -10 -24 -26 -50 -25 -69 2 l-15
21 -19 -24 c-17 -20 -22 -21 -36 -10 -20 17 -23 96 -3 88 48 -20 47 -20 47 11
0 36 23 48 52 28 18 -13 25 -13 50 0 16 8 26 19 23 25 -4 6 7 9 27 9 64 -2
213 17 237 29 13 7 44 13 70 13 26 -1 53 3 61 8 7 5 24 4 38 -1 20 -8 27 -6
39 11 19 28 40 25 47 -6z"/>
<path d="M1120 1953 c0 -23 -2 -25 -11 -13 -9 12 -9 11 -4 -5 4 -11 7 -28 7
-37 -1 -24 16 -32 33 -18 8 6 18 9 23 6 6 -3 12 4 16 16 4 16 -2 31 -21 50
-34 35 -43 35 -43 1z"/>
<path d="M2985 1963 c-12 -2 -45 -26 -75 -53 -30 -26 -59 -45 -65 -41 -15 12
-61 6 -98 -12 -17 -9 -40 -18 -51 -21 -13 -5 -15 -10 -8 -19 6 -7 -24 5 -66
25 -101 50 -160 58 -201 28 -18 -12 -30 -29 -29 -38 4 -22 87 -64 113 -58 17
4 20 1 20 -20 -1 -13 -7 -30 -13 -36 -7 -7 -12 -18 -12 -26 0 -7 -5 -10 -12
-6 -8 5 -9 0 -6 -14 8 -29 5 -28 -32 8 -35 34 -42 37 -38 14 2 -10 -3 -19 -11
-22 -9 -3 -11 1 -7 16 9 28 -10 37 -24 11 -9 -16 -8 -24 5 -39 12 -13 13 -19
4 -22 -8 -3 -10 -11 -5 -23 6 -16 9 -17 16 -5 9 13 10 13 11 0 1 -8 1 -18 1
-21 -1 -3 11 -4 26 -2 31 6 55 5 100 -1 17 -2 32 0 32 4 0 5 13 7 29 5 17 -2
34 2 41 10 6 7 20 11 30 8 11 -3 27 0 35 7 8 7 24 10 35 7 11 -3 37 -1 57 5
21 5 67 11 103 13 36 2 68 4 72 4 3 1 9 9 11 19 3 12 5 11 6 -6 1 -14 5 -20
12 -17 6 4 10 21 9 39 -3 45 -1 56 9 56 5 0 8 -18 6 -40 -2 -29 1 -40 11 -40
8 0 14 -5 14 -12 0 -6 3 -9 6 -6 3 4 1 16 -6 27 -6 12 -7 21 -3 20 17 -3 52
14 57 27 3 8 -6 24 -21 37 -14 12 -37 32 -51 45 -14 12 -32 22 -41 22 -14 0
-14 -2 -1 -10 12 -8 9 -10 -13 -10 -19 0 -26 -4 -21 -12 4 -7 3 -8 -5 -4 -6 4
-8 12 -5 18 4 6 -1 17 -11 25 -15 10 -16 15 -6 26 10 10 12 9 9 -2 -2 -7 3
-16 11 -18 7 -3 12 0 10 6 -3 7 15 33 38 59 52 57 52 76 -2 65z m4 -216 c1 -5
-3 -5 -9 -2 -5 3 -10 16 -9 28 0 21 1 21 9 2 5 -11 9 -24 9 -28z m80 -11 c7
-8 8 -17 3 -20 -6 -3 -12 3 -15 14 -6 24 -4 25 12 6z"/>
<path d="M3826 1955 c4 -8 8 -15 10 -15 2 0 4 7 4 15 0 8 -4 15 -10 15 -5 0
-7 -7 -4 -15z"/>
<path d="M3842 1850 c0 -14 2 -19 5 -12 2 6 2 18 0 25 -3 6 -5 1 -5 -13z"/>
<path d="M3030 1820 c0 -6 7 -10 15 -10 8 0 15 2 15 4 0 2 -7 6 -15 10 -8 3
-15 1 -15 -4z"/>
<path d="M3118 1793 c6 -2 9 -10 6 -15 -4 -7 -2 -8 4 -4 18 11 14 26 -5 25
-11 0 -13 -3 -5 -6z"/>
<path d="M2450 1715 c0 -18 11 -19 34 -2 16 11 15 13 -8 15 -17 1 -26 -3 -26
-13z"/>
<path d="M2320 1648 c0 -8 7 -15 15 -15 18 0 15 19 -3 25 -7 2 -12 -3 -12 -10z"/>
<path d="M2277 1590 c-4 -14 0 -20 13 -20 10 0 23 -7 30 -15 9 -11 16 -12 26
-4 7 6 18 8 23 5 5 -4 13 -1 17 5 5 8 3 9 -6 4 -10 -6 -12 -4 -7 8 5 14 1 16
-26 12 -18 -3 -26 -3 -19 1 6 3 9 10 6 15 -3 6 -11 5 -20 -2 -10 -8 -14 -8
-14 0 0 19 -17 12 -23 -9z"/>
<path d="M2350 1543 c0 -5 12 -13 26 -20 26 -12 26 -12 9 7 -18 20 -35 26 -35
13z"/>
<path d="M3670 1480 c-1 -14 -3 -35 -4 -47 -3 -28 0 -29 13 -5 6 12 7 30 1 48
-8 28 -8 28 -10 4z"/>
<path d="M3410 1480 c0 -5 5 -10 11 -10 5 0 7 5 4 10 -3 6 -8 10 -11 10 -2 0
-4 -4 -4 -10z"/>
<path d="M3710 1458 c0 -19 2 -20 10 -8 13 19 13 30 0 30 -5 0 -10 -10 -10
-22z"/>
<path d="M3417 1430 c3 -11 7 -20 9 -20 2 0 4 9 4 20 0 11 -4 20 -9 20 -5 0
-7 -9 -4 -20z"/>
<path d="M3537 1433 c-4 -3 -7 -11 -7 -17 0 -6 5 -5 12 2 6 6 9 14 7 17 -3 3
-9 2 -12 -2z"/>
<path d="M3416 1385 c-8 -22 -8 -22 9 -22 17 0 18 6 6 25 -7 11 -10 10 -15 -3z"/>
<path d="M3641 1395 c1 -19 18 -51 18 -35 0 8 -4 22 -9 30 -5 8 -9 11 -9 5z"/>
<path d="M3497 1363 c-4 -3 -7 -11 -7 -17 0 -6 5 -5 12 2 6 6 9 14 7 17 -3 3
-9 2 -12 -2z"/>
<path d="M2015 1320 c-3 -5 -2 -17 3 -27 9 -15 11 -14 20 4 15 27 -7 49 -23
23z"/>
<path d="M1682 1270 c0 -14 2 -19 5 -12 2 6 2 18 0 25 -3 6 -5 1 -5 -13z"/>
<path d="M3430 1281 c0 -17 12 -41 20 -41 10 0 1 38 -11 46 -5 3 -9 1 -9 -5z"/>
<path d="M1580 1265 c0 -8 -5 -15 -12 -15 -6 0 -9 -2 -6 -5 3 -3 13 -3 22 1
17 7 22 34 6 34 -5 0 -10 -7 -10 -15z"/>
<path d="M1840 1266 c-6 -8 -10 -25 -8 -36 2 -17 5 -14 14 14 12 40 12 42 -6
22z"/>
<path d="M1654 1245 c-7 -30 2 -75 17 -75 6 0 6 7 -1 21 -6 11 -8 33 -5 50 8
35 -2 39 -11 4z"/>
<path d="M1605 1239 c-4 -6 -5 -12 -2 -15 2 -3 7 2 10 11 7 17 1 20 -8 4z"/>
<path d="M1393 1200 c1 -14 12 -35 26 -47 31 -30 35 -29 15 2 -9 14 -21 25
-26 25 -5 0 -7 4 -4 8 2 4 1 14 -4 22 -7 11 -9 8 -7 -10z"/>
<path d="M2045 1200 c3 -5 8 -10 11 -10 2 0 4 5 4 10 0 6 -5 10 -11 10 -5 0
-7 -4 -4 -10z"/>
<path d="M1866 1175 c-9 -26 -7 -32 5 -12 6 10 9 21 6 23 -2 3 -7 -2 -11 -11z"/>
<path d="M1566 1165 c-8 -22 -8 -22 9 -22 17 0 18 6 6 25 -7 11 -10 10 -15 -3z"/>
<path d="M1706 1153 c-6 -14 -5 -15 5 -6 7 7 10 15 7 18 -3 3 -9 -2 -12 -12z"/>
<path d="M1586 1124 c-17 -12 -17 -14 -4 -14 9 0 20 5 23 11 11 17 2 18 -19 3z"/>
<path d="M2026 1124 c-4 -10 -1 -14 6 -12 15 5 23 28 10 28 -5 0 -13 -7 -16
-16z"/>
<path d="M3451 1124 c0 -11 3 -14 6 -6 3 7 2 16 -1 19 -3 4 -6 -2 -5 -13z"/>
<path d="M1485 1100 c3 -5 8 -10 11 -10 2 0 4 5 4 10 0 6 -5 10 -11 10 -5 0
-7 -4 -4 -10z"/>
<path d="M3610 1101 c0 -5 5 -13 10 -16 6 -3 10 -2 10 4 0 5 -4 13 -10 16 -5
3 -10 2 -10 -4z"/>
<path d="M1452 1078 c-19 -19 -14 -32 18 -57 l30 -22 9 23 c12 31 -14 54 -36
32 -18 -18 -23 -18 -23 2 0 8 5 12 10 9 6 -3 10 1 10 9 0 19 -2 20 -18 4z m58
-32 c0 -3 -4 -8 -10 -11 -5 -3 -10 -1 -10 4 0 6 5 11 10 11 6 0 10 -2 10 -4z"/>
<path d="M1573 1070 c-1 -11 2 -22 8 -25 5 -4 8 3 6 14 -4 28 -12 34 -14 11z"/>
<path d="M1400 1055 c0 -5 5 -17 10 -25 5 -8 10 -10 10 -5 0 6 -5 17 -10 25
-5 8 -10 11 -10 5z"/>
<path d="M2950 1036 c13 -35 1 -40 -27 -10 -13 14 -29 23 -36 21 -9 -4 -9 -6
1 -6 10 -1 10 -6 2 -21 -6 -11 -8 -26 -5 -33 4 -6 -3 -1 -14 12 -19 21 -21 21
-22 5 0 -16 -2 -15 -9 4 -14 33 -21 27 -9 -7 6 -16 17 -32 25 -35 9 -3 12 -10
9 -16 -3 -6 -17 1 -33 15 -32 30 -42 31 -42 8 0 -13 -2 -15 -8 -5 -5 7 -15 11
-23 9 -8 -2 -11 -2 -6 0 4 3 7 16 7 31 0 24 -1 24 -13 8 -12 -17 -15 -17 -30
-2 -9 10 -18 12 -22 6 -3 -5 -13 -10 -22 -10 -9 0 -25 -7 -35 -17 -17 -15 -18
-15 -18 5 0 30 -11 28 -46 -9 -21 -22 -24 -28 -10 -23 14 5 17 4 12 -4 -10
-16 16 -15 34 1 12 10 12 9 1 -5 -11 -15 -11 -18 2 -18 8 0 18 -8 22 -17 6
-17 7 -17 16 -1 6 11 16 15 26 11 15 -6 14 -7 -3 -14 -16 -6 38 -5 179 4 20 1
38 -2 40 -6 1 -5 15 -2 30 6 14 8 24 17 20 21 -4 4 0 4 9 1 9 -4 19 -2 22 3 3
6 14 8 25 5 13 -3 20 2 24 17 3 14 1 20 -6 17 -7 -3 -11 -10 -9 -16 1 -7 -2
-10 -7 -7 -6 4 -6 17 1 37 9 25 7 32 -8 44 -11 8 -27 15 -36 15 -14 0 -16 -4
-8 -24z m-10 -55 c13 -11 12 -12 -6 -3 -12 7 -24 19 -28 29 -5 16 -4 16 7 3 7
-8 19 -21 27 -29z"/>
<path d="M1631 1034 c0 -11 3 -14 6 -6 3 7 2 16 -1 19 -3 4 -6 -2 -5 -13z"/>
<path d="M3390 1033 c0 -17 6 -23 23 -23 16 0 18 3 8 9 -7 5 -17 15 -22 22 -6
10 -9 8 -9 -8z"/>
<path d="M1891 1024 c0 -11 3 -14 6 -6 3 7 2 16 -1 19 -3 4 -6 -2 -5 -13z"/>
<path d="M3055 1030 c3 -5 16 -10 28 -9 21 0 21 1 2 9 -28 12 -37 12 -30 0z"/>
<path d="M1437 1005 c-4 -8 -2 -17 3 -20 6 -4 10 3 10 14 0 25 -6 27 -13 6z"/>
<path d="M1545 1010 c3 -5 8 -10 11 -10 2 0 4 5 4 10 0 6 -5 10 -11 10 -5 0
-7 -4 -4 -10z"/>
<path d="M1670 1008 c0 -4 4 -8 9 -8 6 0 12 4 15 8 3 5 -1 9 -9 9 -8 0 -15 -4
-15 -9z"/>
<path d="M1514 996 c-4 -10 -1 -23 6 -29 10 -10 11 -8 6 8 -5 15 -4 17 4 9 9
-9 8 -18 -4 -37 -15 -22 -15 -25 -1 -31 9 -3 13 -2 10 4 -3 6 1 10 10 10 9 0
14 -4 11 -9 -3 -5 1 -11 9 -15 17 -6 21 9 4 20 -6 3 -9 14 -6 24 3 11 -5 28
-19 41 -21 20 -24 20 -30 5z"/>
<path d="M2517 1003 c-13 -12 -7 -22 10 -16 11 4 14 3 9 -5 -4 -7 -5 -12 -2
-12 3 0 10 9 16 20 9 17 8 20 -8 20 -10 0 -22 -3 -25 -7z"/>
<path d="M3028 1003 c6 -2 18 -2 25 0 6 3 1 5 -13 5 -14 0 -19 -2 -12 -5z"/>
<path d="M3417 979 c4 -13 8 -18 11 -10 2 7 -1 18 -6 23 -8 8 -9 4 -5 -13z"/>
<path d="M3450 977 c13 -36 13 -40 -2 -31 -7 5 -8 3 -4 -5 6 -9 13 -8 27 5 21
19 24 25 10 22 -5 -2 -17 6 -25 17 -15 19 -16 19 -6 -8z"/>
<path d="M1464 964 c3 -8 6 -20 6 -25 0 -5 7 -9 16 -9 13 0 14 3 5 13 -6 8 -8
16 -5 19 2 3 -3 8 -12 12 -12 5 -15 2 -10 -10z"/>
<path d="M1455 910 c3 -5 11 -10 16 -10 6 0 7 5 4 10 -3 6 -11 10 -16 10 -6 0
-7 -4 -4 -10z"/>
<path d="M2170 909 c0 -6 -8 -9 -19 -6 -14 3 -17 0 -13 -15 4 -18 6 -18 28 3
27 25 29 29 14 29 -5 0 -10 -5 -10 -11z"/>
<path d="M2090 889 c0 -5 5 -7 10 -4 6 3 10 8 10 11 0 2 -4 4 -10 4 -5 0 -10
-5 -10 -11z"/>
<path d="M1530 840 c0 -5 5 -10 11 -10 5 0 7 5 4 10 -3 6 -8 10 -11 10 -2 0
-4 -4 -4 -10z"/>
<path d="M2030 825 c0 -8 2 -15 4 -15 2 0 6 7 10 15 3 8 1 15 -4 15 -6 0 -10
-7 -10 -15z"/>
<path d="M3362 810 c0 -19 2 -27 5 -17 2 9 2 25 0 35 -3 9 -5 1 -5 -18z"/>
<path d="M2266 717 c3 -10 9 -15 12 -12 3 3 0 11 -7 18 -10 9 -11 8 -5 -6z"/>
<path d="M3270 703 c0 -27 15 -23 22 5 3 11 0 19 -8 19 -8 0 -14 -11 -14 -24z"/>
<path d="M1640 685 c8 -11 22 -29 31 -40 10 -11 18 -24 18 -30 0 -5 10 -17 22
-25 15 -10 20 -11 15 -2 -10 16 0 15 29 -4 15 -10 25 -12 25 -5 0 6 -6 11 -14
11 -8 0 -34 19 -58 43 -24 23 -53 49 -64 57 -18 14 -18 14 -4 -5z"/>
<path d="M1250 656 c0 -28 3 -33 18 -29 13 3 19 14 19 34 0 21 -5 29 -19 29
-14 0 -18 -8 -18 -34z"/>
<path d="M1254 608 c-4 -6 0 -14 7 -19 8 -4 16 -4 20 3 4 7 9 7 13 0 8 -13
-10 -26 -23 -17 -5 3 -12 1 -15 -4 -6 -9 16 -21 40 -21 10 0 13 8 10 26 -3 15
-8 29 -11 32 -10 11 -35 10 -41 0z"/>
<path d="M3005 610 c-3 -5 -1 -10 4 -10 6 0 11 5 11 10 0 6 -2 10 -4 10 -3 0
-8 -4 -11 -10z"/>
<path d="M2630 580 c0 -5 5 -10 11 -10 5 0 7 5 4 10 -3 6 -8 10 -11 10 -2 0
-4 -4 -4 -10z"/>
<path d="M1304 525 c3 -11 8 -37 12 -58 3 -20 10 -40 15 -43 5 -3 7 -9 4 -14
-3 -4 3 -7 12 -6 10 2 19 11 20 22 3 18 3 18 -5 0 -8 -19 -9 -19 -17 0 -4 10
-9 24 -10 29 -1 11 -12 41 -26 70 l-9 20 4 -20z"/>
<path d="M1085 330 c3 -5 8 -10 11 -10 2 0 4 5 4 10 0 6 -5 10 -11 10 -5 0 -7
-4 -4 -10z"/>
<path d="M1930 333 c8 -3 21 -10 28 -16 9 -7 11 -6 6 7 -3 9 -16 16 -28 15
-14 0 -16 -2 -6 -6z"/>
<path d="M1030 319 c0 -5 5 -7 10 -4 6 3 10 8 10 11 0 2 -4 4 -10 4 -5 0 -10
-5 -10 -11z"/>
<path d="M1025 280 c4 -6 11 -8 16 -5 14 9 11 15 -7 15 -8 0 -12 -5 -9 -10z"/>
<path d="M983 204 c-13 -14 -23 -31 -23 -37 0 -5 -3 -8 -6 -5 -3 3 -21 -9 -39
-28 -19 -19 -40 -34 -47 -34 -11 0 -11 -2 0 -8 7 -5 10 -16 6 -25 -3 -10 -1
-17 6 -17 6 0 8 -5 4 -12 -5 -8 -11 -6 -20 6 -8 11 -14 13 -19 7 -3 -6 -1 -11
6 -11 7 0 5 -8 -7 -21 l-18 -20 58 3 c32 2 60 6 63 10 2 5 -1 8 -6 8 -18 0
-13 18 11 40 12 11 17 20 12 20 -6 0 -15 -5 -22 -12 -15 -15 -42 -19 -42 -7 0
5 7 9 15 9 8 0 15 5 15 10 0 6 5 10 10 10 13 0 45 32 54 56 8 19 8 19 16 -1
12 -28 12 -45 -1 -45 -5 0 -7 5 -3 12 4 7 3 8 -4 4 -6 -4 -9 -13 -5 -21 3 -9
-1 -23 -8 -32 -12 -14 -12 -16 0 -9 8 5 17 3 22 -5 7 -9 7 -5 3 14 -4 17 -2
27 5 27 13 0 25 -45 16 -59 -3 -6 -1 -11 5 -11 6 0 8 -5 5 -10 -3 -6 3 -10 15
-10 12 0 18 5 15 10 -3 5 1 10 9 10 9 0 16 6 16 13 0 21 -12 28 -26 16 -14
-12 -26 8 -40 69 -4 15 -10 32 -15 37 -4 6 -9 24 -11 42 l-3 32 -22 -25z m-70
-185 c-6 -6 -19 -9 -29 -6 -16 4 -15 5 4 6 12 0 22 6 22 13 0 6 3 8 7 5 4 -4
2 -12 -4 -18z"/>
<path d="M1100 205 c0 -5 5 -17 10 -25 5 -8 10 -10 10 -5 0 6 -5 17 -10 25 -5
8 -10 11 -10 5z"/>
<path d="M1050 174 c-11 -12 -10 -18 3 -31 15 -15 16 -14 10 6 -4 14 -1 26 8
32 8 5 9 9 3 9 -6 0 -17 -7 -24 -16z"/>
<path d="M1130 180 c0 -5 5 -10 11 -10 5 0 7 5 4 10 -3 6 -8 10 -11 10 -2 0
-4 -4 -4 -10z"/>
<path d="M1087 139 c6 -6 9 -18 6 -27 -4 -10 -2 -13 5 -8 18 11 14 33 -5 41
-14 5 -15 3 -6 -6z"/>
<path d="M1170 118 c0 -4 4 -8 9 -8 6 0 12 4 15 8 3 5 -1 9 -9 9 -8 0 -15 -4
-15 -9z"/>
<path d="M1150 93 c0 -28 -17 -38 -35 -23 -12 10 -15 9 -15 -3 0 -8 6 -17 13
-20 9 -3 7 -9 -6 -24 -17 -19 -16 -20 13 -20 21 0 27 4 20 11 -15 15 -12 36 4
36 8 0 16 -10 18 -22 2 -13 11 -24 23 -26 16 -3 17 -1 8 8 -6 7 -9 19 -6 26 3
8 -2 17 -11 20 -9 3 -13 10 -10 16 3 5 11 5 19 -2 9 -8 14 -6 19 5 3 10 -1 15
-12 15 -10 0 -23 5 -30 12 -9 9 -12 7 -12 -9z"/>
<path d="M1067 93 c-4 -3 -7 -11 -7 -17 0 -6 5 -5 12 2 6 6 9 14 7 17 -3 3 -9
2 -12 -2z"/>
</g>
</svg>
